<svg width="375" height="296" viewBox="0 0 375 296" fill="none" xmlns="http://www.w3.org/2000/svg">
<g filter="url(#filter0_dd_1_4780)">
<g clip-path="url(#clip0_1_4780)">
<rect x="16" y="10" width="358" height="246" rx="20" fill="white"/>
<path d="M36.9999 34.6938C34.6987 34.6938 32.8333 32.8284 32.8333 30.5271C32.8333 28.2259 34.6987 26.3605 36.9999 26.3605C39.3012 26.3605 41.1666 28.2259 41.1666 30.5271C41.1666 32.8284 39.3012 34.6938 36.9999 34.6938Z" fill="#E11D48"/>
<path d="M51.9999 34.6938C49.6987 34.6938 47.8333 32.8284 47.8333 30.5271C47.8333 28.2259 49.6987 26.3605 51.9999 26.3605C54.3012 26.3605 56.1666 28.2259 56.1666 30.5271C56.1666 32.8284 54.3012 34.6938 51.9999 34.6938Z" fill="#FBBF24"/>
<path d="M66.9999 34.6938C64.6987 34.6938 62.8333 32.8284 62.8333 30.5271C62.8333 28.2259 64.6987 26.3605 66.9999 26.3605C69.3012 26.3605 71.1666 28.2259 71.1666 30.5271C71.1666 32.8284 69.3012 34.6938 66.9999 34.6938Z" fill="#22C55E"/>
<path d="M315.757 30.5001L320.707 35.45C320.803 35.5423 320.879 35.6526 320.931 35.7746C320.984 35.8966 321.011 36.0278 321.012 36.1606C321.013 36.2934 320.988 36.4251 320.938 36.548C320.888 36.6709 320.813 36.7825 320.719 36.8764C320.626 36.9703 320.514 37.0446 320.391 37.0948C320.268 37.1451 320.136 37.1704 320.004 37.1693C319.871 37.1681 319.74 37.1405 319.618 37.0881C319.496 37.0357 319.385 36.9595 319.293 36.864L313.636 31.2071C313.449 31.0195 313.343 30.7652 313.343 30.5001C313.343 30.2349 313.449 29.9806 313.636 29.7931L319.293 24.1361C319.482 23.9539 319.734 23.8531 319.996 23.8554C320.259 23.8577 320.509 23.9628 320.695 24.1482C320.88 24.3336 320.985 24.5845 320.988 24.8467C320.99 25.1089 320.889 25.3615 320.707 25.5501L315.757 30.5001Z" fill="#94A3B8"/>
<path d="M347.314 30.571L342.364 25.621C342.182 25.4324 342.081 25.1798 342.083 24.9176C342.086 24.6554 342.191 24.4046 342.376 24.2192C342.562 24.0338 342.812 23.9286 343.075 23.9263C343.337 23.924 343.589 24.0248 343.778 24.207L349.435 29.864C349.622 30.0515 349.728 30.3058 349.728 30.571C349.728 30.8361 349.622 31.0904 349.435 31.278L343.778 36.935C343.589 37.1172 343.337 37.218 343.075 37.2157C342.812 37.2134 342.562 37.1082 342.376 36.9228C342.191 36.7374 342.086 36.4866 342.083 36.2244C342.081 35.9622 342.182 35.7096 342.364 35.521L347.314 30.571Z" fill="#475569"/>
<rect width="358" height="205" transform="translate(16 51)" fill="#E0F2FE"/>
<path d="M16 51.2733H75.9665V256H16V51.2733Z" fill="#BFDBFE"/>
<path d="M23.196 70.68C23.196 68.8685 24.8069 67.4 26.794 67.4H65.1725C67.1597 67.4 68.7705 68.8685 68.7705 70.68C68.7705 72.4915 67.1597 73.96 65.1725 73.96H26.794C24.8069 73.96 23.196 72.4915 23.196 70.68Z" fill="#93C5FD"/>
<path d="M37.5879 93.64C37.5879 92.7343 38.3933 92 39.3869 92H69.3701C70.3637 92 71.1691 92.7343 71.1691 93.64C71.1691 94.5457 70.3637 95.28 69.3701 95.28H39.3869C38.3933 95.28 37.5879 94.5457 37.5879 93.64Z" fill="white"/>
<path d="M37.5879 111.133C37.5879 110.228 38.3933 109.493 39.3869 109.493H60.0753C61.0689 109.493 61.8743 110.228 61.8743 111.133C61.8743 112.039 61.0689 112.773 60.0753 112.773H39.3869C38.3933 112.773 37.5879 112.039 37.5879 111.133Z" fill="white"/>
<path d="M37.5879 128.627C37.5879 127.721 38.3933 126.987 39.3869 126.987H65.1725C66.166 126.987 66.9715 127.721 66.9715 128.627C66.9715 129.532 66.166 130.267 65.1725 130.267H39.3869C38.3933 130.267 37.5879 129.532 37.5879 128.627Z" fill="white"/>
<path fill-rule="evenodd" clip-rule="evenodd" d="M27.9934 97.1934C30.1461 97.1934 31.8912 95.6025 31.8912 93.6401C31.8912 91.6776 30.1461 90.0867 27.9934 90.0867C25.8407 90.0867 24.0955 91.6776 24.0955 93.6401C24.0955 95.6025 25.8407 97.1934 27.9934 97.1934ZM27.9934 98.0134C30.6429 98.0134 32.7907 96.0554 32.7907 93.6401C32.7907 91.2247 30.6429 89.2667 27.9934 89.2667C25.3439 89.2667 23.196 91.2247 23.196 93.6401C23.196 96.0554 25.3439 98.0134 27.9934 98.0134Z" fill="#93C5FD"/>
<path d="M95.1558 70.68C95.1558 69.4723 96.2297 68.4933 97.5544 68.4933H132.335C133.66 68.4933 134.734 69.4723 134.734 70.68C134.734 71.8876 133.66 72.8666 132.335 72.8666H97.5544C96.2297 72.8666 95.1558 71.8876 95.1558 70.68Z" fill="#BFDBFE"/>
<path fill-rule="evenodd" clip-rule="evenodd" d="M158.87 158.847C158.888 157.287 160.246 155.96 161.993 155.96C163.064 155.96 163.853 156.444 164.356 156.899C164.496 157.026 164.616 157.152 164.717 157.269C164.818 157.152 164.938 157.026 165.078 156.899C165.581 156.444 166.369 155.96 167.441 155.96C169.187 155.96 170.546 157.287 170.564 158.847V158.847C170.597 161.887 167.917 163.991 165.223 165.658C165.074 165.751 164.897 165.8 164.717 165.8C164.536 165.8 164.36 165.751 164.211 165.658C161.517 163.991 158.837 161.887 158.87 158.847L158.87 158.847ZM165.119 158.194C165.119 158.194 165.119 158.194 165.119 158.193C165.12 158.192 165.122 158.189 165.124 158.185C165.129 158.176 165.138 158.162 165.149 158.143C165.173 158.106 165.21 158.05 165.26 157.982C165.36 157.845 165.511 157.662 165.712 157.481C166.114 157.116 166.688 156.78 167.441 156.78C168.661 156.78 169.651 157.715 169.664 158.855C169.692 161.417 167.435 163.298 164.717 164.98L164.717 164.98L164.716 164.98C161.999 163.298 159.741 161.417 159.77 158.855" fill="white"/>
<path d="M95.1558 160.88C95.1558 159.672 96.2297 158.693 97.5544 158.693H113.745C115.07 158.693 116.144 159.672 116.144 160.88C116.144 162.088 115.07 163.067 113.745 163.067H97.5544C96.2297 163.067 95.1558 162.088 95.1558 160.88Z" fill="#BFDBFE"/>
<path d="M120.941 160.88C120.941 159.672 122.015 158.693 123.34 158.693H150.325C151.65 158.693 152.724 159.672 152.724 160.88C152.724 162.088 151.65 163.067 150.325 163.067H123.34C122.015 163.067 120.941 162.088 120.941 160.88Z" fill="#BFDBFE"/>
<path d="M95.1558 182.2C95.1558 181.294 95.9612 180.56 96.9548 180.56H122.141C123.134 180.56 123.94 181.294 123.94 182.2C123.94 183.106 123.134 183.84 122.141 183.84H96.9548C95.9612 183.84 95.1558 183.106 95.1558 182.2Z" fill="white"/>
<path d="M95.1558 189.853C95.1558 188.948 95.9612 188.213 96.9548 188.213H135.633C136.627 188.213 137.432 188.948 137.432 189.853C137.432 190.759 136.627 191.493 135.633 191.493H96.9548C95.9612 191.493 95.1558 190.759 95.1558 189.853Z" fill="white"/>
<path d="M128.737 182.2C128.737 181.294 129.542 180.56 130.536 180.56H160.519C161.513 180.56 162.318 181.294 162.318 182.2C162.318 183.106 161.513 183.84 160.519 183.84H130.536C129.542 183.84 128.737 183.106 128.737 182.2Z" fill="white"/>
<path d="M95.1558 92C95.1558 91.0942 95.9612 90.36 96.9548 90.36H122.141C123.134 90.36 123.94 91.0942 123.94 92C123.94 92.9057 123.134 93.64 122.141 93.64H96.9548C95.9612 93.64 95.1558 92.9057 95.1558 92Z" fill="white"/>
<path d="M95.1558 99.6533C95.1558 98.7476 95.9612 98.0133 96.9548 98.0133H159.02C160.014 98.0133 160.819 98.7476 160.819 99.6533C160.819 100.559 160.014 101.293 159.02 101.293H96.9548C95.9612 101.293 95.1558 100.559 95.1558 99.6533Z" fill="white"/>
<path d="M128.737 92C128.737 91.0942 129.542 90.36 130.536 90.36H198.898C199.891 90.36 200.697 91.0942 200.697 92C200.697 92.9057 199.891 93.64 198.898 93.64H130.536C129.542 93.64 128.737 92.9057 128.737 92Z" fill="white"/>
<path fill-rule="evenodd" clip-rule="evenodd" d="M32.191 107.58H24.3953V114.687H32.191V107.58ZM23.4958 106.76V115.507H33.0905V106.76H23.4958Z" fill="#60A5FA"/>
<g clip-path="url(#clip1_1_4780)">
<rect x="223.784" y="70.6801" width="59.9665" height="74.8933" rx="10" fill="white"/>
<path d="M263.729 145.638C263.729 164.59 247.016 179.953 226.399 179.953C205.783 179.953 189.069 164.59 189.069 145.638C189.069 126.687 205.783 111.323 226.399 111.323C247.016 111.323 263.729 126.687 263.729 145.638Z" fill="#FBBF24"/>
<path fill-rule="evenodd" clip-rule="evenodd" d="M292.15 99.9225L272.645 82.1412L254.863 101.646L274.369 119.428L292.15 99.9225ZM272.57 80.52L253.242 101.721L274.444 121.049L293.771 99.8476L272.57 80.52Z" fill="#BFDBFE"/>
</g>
<path d="M28.2932 124.8L33.0905 132.375H23.4958L28.2932 124.8Z" fill="#93C5FD"/>
<rect x="293.345" y="70.6801" width="59.9665" height="55.2133" rx="10" fill="white"/>
<path fill-rule="evenodd" clip-rule="evenodd" d="M320.32 111.849C326.299 111.849 331.104 107.471 331.104 102.117C331.104 96.763 326.299 92.3856 320.32 92.3856C314.342 92.3856 309.536 96.763 309.536 102.117C309.536 107.471 314.342 111.849 320.32 111.849ZM320.32 114.582C327.932 114.582 334.103 109.001 334.103 102.117C334.103 95.2329 327.932 89.6522 320.32 89.6522C312.708 89.6522 306.538 95.2329 306.538 102.117C306.538 109.001 312.708 114.582 320.32 114.582Z" fill="#BFDBFE"/>
<path d="M326.584 98.1716L329.72 83.8523L340.553 93.7278L326.584 98.1716Z" fill="#FBBF24"/>
<g clip-path="url(#clip2_1_4780)">
<rect x="223.784" y="154.32" width="59.9665" height="83.64" rx="10" fill="white"/>
<path fill-rule="evenodd" clip-rule="evenodd" d="M280.003 248.62C296.81 248.62 310.436 236.199 310.436 220.877C310.436 205.554 296.81 193.133 280.003 193.133C263.195 193.133 249.57 205.554 249.57 220.877C249.57 236.199 263.195 248.62 280.003 248.62ZM280.003 251.353C298.466 251.353 313.434 237.708 313.434 220.877C313.434 204.045 298.466 190.4 280.003 190.4C261.539 190.4 246.571 204.045 246.571 220.877C246.571 237.708 261.539 251.353 280.003 251.353Z" fill="#FBBF24"/>
<path d="M255.266 179.255C255.266 184.422 250.635 188.61 244.922 188.61C239.209 188.61 234.578 184.422 234.578 179.255C234.578 174.088 239.209 169.9 244.922 169.9C250.635 169.9 255.266 174.088 255.266 179.255Z" fill="#BFDBFE"/>
<path fill-rule="evenodd" clip-rule="evenodd" d="M244.922 187.79C250.145 187.79 254.367 183.963 254.367 179.255C254.367 174.547 250.145 170.72 244.922 170.72C239.699 170.72 235.477 174.547 235.477 179.255C235.477 183.963 239.699 187.79 244.922 187.79ZM244.922 188.61C250.635 188.61 255.266 184.422 255.266 179.255C255.266 174.088 250.635 169.9 244.922 169.9C239.209 169.9 234.578 174.088 234.578 179.255C234.578 184.422 239.209 188.61 244.922 188.61Z" fill="#BFDBFE"/>
</g>
<g clip-path="url(#clip3_1_4780)">
<rect x="293.345" y="134.64" width="59.9665" height="93.48" rx="10" fill="white"/>
<path d="M367.104 202.017C367.104 208.734 361.197 214.18 353.911 214.18C346.625 214.18 340.719 208.734 340.719 202.017C340.719 195.299 346.625 189.853 353.911 189.853C361.197 189.853 367.104 195.299 367.104 202.017Z" fill="white"/>
<path fill-rule="evenodd" clip-rule="evenodd" d="M353.911 213.36C360.691 213.36 366.204 208.29 366.204 202.017C366.204 195.743 360.691 190.673 353.911 190.673C347.131 190.673 341.618 195.743 341.618 202.017C341.618 208.29 347.131 213.36 353.911 213.36ZM353.911 214.18C361.197 214.18 367.104 208.734 367.104 202.017C367.104 195.299 361.197 189.853 353.911 189.853C346.625 189.853 340.719 195.299 340.719 202.017C340.719 208.734 346.625 214.18 353.911 214.18Z" fill="#BFDBFE"/>
<path d="M343.117 167.577C343.117 176.559 335.197 183.84 325.427 183.84C315.657 183.84 307.737 176.559 307.737 167.577C307.737 158.595 315.657 151.313 325.427 151.313C335.197 151.313 343.117 158.595 343.117 167.577Z" fill="#BFDBFE"/>
<path d="M304.439 198.873L305.285 201.092L307.861 201.14L305.807 202.559L306.554 204.807L304.439 203.465L302.324 204.807L303.07 202.559L301.017 201.14L303.593 201.092L304.439 198.873Z" fill="#FBBF24"/>
<path d="M316.732 198.873L317.578 201.092L320.154 201.14L318.101 202.559L318.847 204.807L316.732 203.465L314.617 204.807L315.363 202.559L313.31 201.14L315.886 201.092L316.732 198.873Z" fill="#FBBF24"/>
<path d="M329.025 198.873L329.871 201.092L332.447 201.14L330.394 202.559L331.14 204.807L329.025 203.465L326.91 204.807L327.656 202.559L325.603 201.14L328.179 201.092L329.025 198.873Z" fill="#FBBF24"/>
<path d="M341.318 198.873L342.164 201.092L344.74 201.14L342.687 202.559L343.433 204.807L341.318 203.465L339.203 204.807L339.949 202.559L337.896 201.14L340.472 201.092L341.318 198.873Z" fill="#FBBF24"/>
<path d="M353.611 198.873L354.457 201.092L357.033 201.14L354.98 202.559L355.726 204.807L353.611 203.465L351.497 204.807L352.243 202.559L350.189 201.14L352.765 201.092L353.611 198.873Z" fill="#FBBF24"/>
</g>
</g>
<rect x="18.5" y="12.5" width="353" height="241" rx="17.5" stroke="white" stroke-width="5"/>
</g>
<defs>
<filter id="filter0_dd_1_4780" x="-4" y="0" width="398" height="296" filterUnits="userSpaceOnUse" color-interpolation-filters="sRGB">
<feFlood flood-opacity="0" result="BackgroundImageFix"/>
<feColorMatrix in="SourceAlpha" type="matrix" values="0 0 0 0 0 0 0 0 0 0 0 0 0 0 0 0 0 0 127 0" result="hardAlpha"/>
<feOffset/>
<feGaussianBlur stdDeviation="5"/>
<feColorMatrix type="matrix" values="0 0 0 0 0 0 0 0 0 0 0 0 0 0 0 0 0 0 0.07 0"/>
<feBlend mode="normal" in2="BackgroundImageFix" result="effect1_dropShadow_1_4780"/>
<feColorMatrix in="SourceAlpha" type="matrix" values="0 0 0 0 0 0 0 0 0 0 0 0 0 0 0 0 0 0 127 0" result="hardAlpha"/>
<feMorphology radius="5" operator="erode" in="SourceAlpha" result="effect2_dropShadow_1_4780"/>
<feOffset dy="20"/>
<feGaussianBlur stdDeviation="12.5"/>
<feColorMatrix type="matrix" values="0 0 0 0 0 0 0 0 0 0 0 0 0 0 0 0 0 0 0.1 0"/>
<feBlend mode="normal" in2="effect1_dropShadow_1_4780" result="effect2_dropShadow_1_4780"/>
<feBlend mode="normal" in="SourceGraphic" in2="effect2_dropShadow_1_4780" result="shape"/>
</filter>
<clipPath id="clip0_1_4780">
<rect x="16" y="10" width="358" height="246" rx="20" fill="white"/>
</clipPath>
<clipPath id="clip1_1_4780">
<rect x="223.784" y="70.6801" width="59.9665" height="74.8933" rx="10" fill="white"/>
</clipPath>
<clipPath id="clip2_1_4780">
<rect x="223.784" y="154.32" width="59.9665" height="83.64" rx="10" fill="white"/>
</clipPath>
<clipPath id="clip3_1_4780">
<rect x="293.345" y="134.64" width="59.9665" height="93.48" rx="10" fill="white"/>
</clipPath>
</defs>
</svg>
