<?xml version="1.0" encoding="UTF-8" standalone="no" ?>
<!DOCTYPE svg PUBLIC "-//W3C//DTD SVG 1.1//EN" "http://www.w3.org/Graphics/SVG/1.1/DTD/svg11.dtd">
<svg xmlns="http://www.w3.org/2000/svg" xmlns:xlink="http://www.w3.org/1999/xlink" version="1.1" width="599" height="523" viewBox="446 376 599 523" xml:space="preserve">
<desc>Created with Fabric.js 5.2.4</desc>
<defs>
</defs>
<rect x="0" y="0" width="100%" height="100%" fill="transparent"></rect>
<g transform="matrix(0 0 0 0 0 0)" id="3fd25e16-0d6e-411d-ae07-5a8402b8b3fe"  >
</g>
<g transform="matrix(1 0 0 1 299.5 261.5)" id="b056bc31-f8f9-40c7-9159-4da0ea32862d"  >
<rect style="stroke: none; stroke-width: 1; stroke-dasharray: none; stroke-linecap: butt; stroke-dashoffset: 0; stroke-linejoin: miter; stroke-miterlimit: 4; fill: rgb(255,255,255); fill-rule: nonzero; opacity: 1; visibility: hidden;" vector-effect="non-scaling-stroke"  x="-299.5" y="-261.5" rx="0" ry="0" width="599" height="523" />
</g>
<g transform="matrix(0.97 0 0 0.97 738.74 637.49)"  >
<path style="stroke: rgb(0,0,0); stroke-width: 0; stroke-dasharray: none; stroke-linecap: butt; stroke-dashoffset: 0; stroke-linejoin: miter; stroke-miterlimit: 4; fill: rgb(88,28,135); fill-rule: nonzero; opacity: 1;" vector-effect="non-scaling-stroke"  transform=" translate(-24.78, -261.5)" d="M 38.793 494.941 C -61.252 552.703 -189.18 518.424 -246.941 418.379 C -304.703 318.334 -270.424 190.406 -170.379 132.645 L 10.769 28.0587 C 110.815 -29.7026 238.742 4.57551 296.504 104.621 C 354.265 204.666 319.987 332.594 219.941 390.355 L 38.793 494.941 Z" stroke-linecap="round" />
</g>
<g transform="matrix(0.98 0 0 0.98 901.34 644.64)"  >
<g style="" vector-effect="non-scaling-stroke"   >
		<g transform="matrix(1 0 0 1 -11.48 0)" clip-path="url(#CLIPPATH_313)"  >
<clipPath id="CLIPPATH_313" >
	<rect transform="matrix(1 0 0 1 0 0)" id="clip0_1_5098" x="-110" y="-235.715" rx="20" ry="20" width="220" height="471.43" />
</clipPath>
<path style="stroke: none; stroke-width: 1; stroke-dasharray: none; stroke-linecap: butt; stroke-dashoffset: 0; stroke-linejoin: miter; stroke-miterlimit: 4; fill: rgb(224,242,254); fill-rule: nonzero; opacity: 1;" vector-effect="non-scaling-stroke"  transform=" translate(-130.5, -245.71)" d="M 20.5 10 L 240.5 10 L 240.5 481.429 L 20.5 481.429 L 20.5 10 Z" stroke-linecap="round" />
</g>
		<g transform="matrix(1 0 0 1 -11.48 140.8)" clip-path="url(#CLIPPATH_314)"  >
<clipPath id="CLIPPATH_314" >
	<rect transform="matrix(1 0 0 1 0 -140.79)" id="clip0_1_5098" x="-110" y="-235.715" rx="20" ry="20" width="220" height="471.43" />
</clipPath>
<path style="stroke: none; stroke-width: 1; stroke-dasharray: none; stroke-linecap: butt; stroke-dashoffset: 0; stroke-linejoin: miter; stroke-miterlimit: 4; fill: rgb(255,255,255); fill-rule: nonzero; opacity: 1;" vector-effect="non-scaling-stroke"  transform=" translate(-130.5, -386.51)" d="M 40.6143 337.486 C 40.6143 330.543 46.2427 324.914 53.1857 324.914 L 207.814 324.914 C 214.757 324.914 220.385 330.543 220.385 337.486 L 220.385 435.543 C 220.385 442.486 214.757 448.114 207.814 448.114 L 53.1857 448.114 C 46.2427 448.114 40.6143 442.486 40.6143 435.543 L 40.6143 337.486 Z" stroke-linecap="round" />
</g>
		<g transform="matrix(1 0 0 1 21.52 120.37)" clip-path="url(#CLIPPATH_315)"  >
<clipPath id="CLIPPATH_315" >
	<rect transform="matrix(1 0 0 1 -33 -120.37)" id="clip0_1_5098" x="-110" y="-235.715" rx="20" ry="20" width="220" height="471.43" />
</clipPath>
<path style="stroke: none; stroke-width: 1; stroke-dasharray: none; stroke-linecap: butt; stroke-dashoffset: 0; stroke-linejoin: miter; stroke-miterlimit: 4; fill: rgb(251,191,36); fill-rule: nonzero; opacity: 1;" vector-effect="non-scaling-stroke"  transform=" translate(-163.5, -366.09)" d="M 175.757 366.086 C 175.757 372.855 170.27 378.343 163.5 378.343 C 156.731 378.343 151.243 372.855 151.243 366.086 C 151.243 359.316 156.731 353.829 163.5 353.829 C 170.27 353.829 175.757 359.316 175.757 366.086 Z" stroke-linecap="round" />
</g>
		<g transform="matrix(1 0 0 1 -58.94 102.77)" clip-path="url(#CLIPPATH_316)"  >
<clipPath id="CLIPPATH_316" >
	<rect transform="matrix(1 0 0 1 47.46 -102.78)" id="clip0_1_5098" x="-110" y="-235.715" rx="20" ry="20" width="220" height="471.43" />
</clipPath>
<path style="stroke: none; stroke-width: 1; stroke-dasharray: none; stroke-linecap: butt; stroke-dashoffset: 0; stroke-linejoin: miter; stroke-miterlimit: 4; fill: rgb(255,255,255); fill-rule: nonzero; opacity: 1;" vector-effect="non-scaling-stroke"  transform=" translate(-83.04, -348.49)" d="M 134.271 348.486 C 134.271 376.778 111.336 399.714 83.0428 399.714 C 54.75 399.714 31.8142 376.778 31.8142 348.486 C 31.8142 320.193 54.75 297.257 83.0428 297.257 C 111.336 297.257 134.271 320.193 134.271 348.486 Z" stroke-linecap="round" />
</g>
		<g transform="matrix(1 0 0 1 -58.94 102.77)" clip-path="url(#CLIPPATH_317)"  >
<clipPath id="CLIPPATH_317" >
	<rect transform="matrix(1 0 0 1 47.46 -102.78)" id="clip0_1_5098" x="-110" y="-235.715" rx="20" ry="20" width="220" height="471.43" />
</clipPath>
<path style="stroke: none; stroke-width: 1; stroke-dasharray: none; stroke-linecap: butt; stroke-dashoffset: 0; stroke-linejoin: miter; stroke-miterlimit: 4; fill: rgb(224,242,254); fill-rule: evenodd; opacity: 1;" vector-effect="non-scaling-stroke"  transform=" translate(-83.04, -348.49)" d="M 83.0428 393.429 C 107.864 393.429 127.986 373.307 127.986 348.486 C 127.986 323.664 107.864 303.543 83.0428 303.543 C 58.2215 303.543 38.0999 323.664 38.0999 348.486 C 38.0999 373.307 58.2215 393.429 83.0428 393.429 Z M 83.0428 399.714 C 111.336 399.714 134.271 376.778 134.271 348.486 C 134.271 320.193 111.336 297.257 83.0428 297.257 C 54.75 297.257 31.8142 320.193 31.8142 348.486 C 31.8142 376.778 54.75 399.714 83.0428 399.714 Z" stroke-linecap="round" />
</g>
		<g transform="matrix(1 0 0 1 23.09 165.31)" clip-path="url(#CLIPPATH_318)"  >
<clipPath id="CLIPPATH_318" >
	<rect transform="matrix(1 0 0 1 -34.57 -165.31)" id="clip0_1_5098" x="-110" y="-235.715" rx="20" ry="20" width="220" height="471.43" />
</clipPath>
<path style="stroke: none; stroke-width: 1; stroke-dasharray: none; stroke-linecap: butt; stroke-dashoffset: 0; stroke-linejoin: miter; stroke-miterlimit: 4; fill: rgb(186,230,253); fill-rule: nonzero; opacity: 1;" vector-effect="non-scaling-stroke"  transform=" translate(-165.07, -411.03)" d="M 220.386 463.829 L 109.757 463.829 L 220.386 358.229 L 220.386 463.829 Z" stroke-linecap="round" />
</g>
		<g transform="matrix(1 0 0 1 -52.34 55.31)" clip-path="url(#CLIPPATH_319)"  >
<clipPath id="CLIPPATH_319" >
	<rect transform="matrix(1 0 0 1 40.86 -55.31)" id="clip0_1_5098" x="-110" y="-235.715" rx="20" ry="20" width="220" height="471.43" />
</clipPath>
<path style="stroke: none; stroke-width: 1; stroke-dasharray: none; stroke-linecap: butt; stroke-dashoffset: 0; stroke-linejoin: miter; stroke-miterlimit: 4; fill: rgb(255,255,255); fill-rule: nonzero; opacity: 1;" vector-effect="non-scaling-stroke"  transform=" translate(-89.64, -301.03)" d="M 40.6143 301.029 C 40.6143 298.946 42.3028 297.257 44.3857 297.257 L 134.9 297.257 C 136.983 297.257 138.671 298.946 138.671 301.029 C 138.671 303.112 136.983 304.8 134.9 304.8 L 44.3857 304.8 C 42.3028 304.8 40.6143 303.112 40.6143 301.029 Z" stroke-linecap="round" />
</g>
		<g transform="matrix(1 0 0 1 -11.48 205.54)" clip-path="url(#CLIPPATH_320)"  >
<clipPath id="CLIPPATH_320" >
	<rect transform="matrix(1 0 0 1 0 -205.54)" id="clip0_1_5098" x="-110" y="-235.715" rx="20" ry="20" width="220" height="471.43" />
</clipPath>
<path style="stroke: none; stroke-width: 1; stroke-dasharray: none; stroke-linecap: butt; stroke-dashoffset: 0; stroke-linejoin: miter; stroke-miterlimit: 4; fill: rgb(224,242,254); fill-rule: nonzero; opacity: 1;" vector-effect="non-scaling-stroke"  transform=" translate(-130.5, -451.26)" d="M 20.5 421.086 L 240.5 421.086 L 240.5 481.429 L 20.5 481.429 L 20.5 421.086 Z" stroke-linecap="round" />
</g>
		<g transform="matrix(1 0 0 1 -11.48 175.37)" clip-path="url(#CLIPPATH_321)"  >
<clipPath id="CLIPPATH_321" >
	<rect transform="matrix(1 0 0 1 0 -175.37)" id="clip0_1_5098" x="-110" y="-235.715" rx="20" ry="20" width="220" height="471.43" />
</clipPath>
<path style="stroke: none; stroke-width: 1; stroke-dasharray: none; stroke-linecap: butt; stroke-dashoffset: 0; stroke-linejoin: miter; stroke-miterlimit: 4; fill: rgb(255,255,255); fill-rule: nonzero; opacity: 1;" vector-effect="non-scaling-stroke"  transform=" translate(-130.5, -421.09)" d="M 20.5 424.086 L 240.5 424.086 L 240.5 418.086 L 20.5 418.086 L 20.5 424.086 Z" stroke-linecap="round" />
</g>
		<g transform="matrix(1 0 0 1 -88.17 205.55)" clip-path="url(#CLIPPATH_322)"  >
<clipPath id="CLIPPATH_322" >
	<rect transform="matrix(1 0 0 1 76.69 -205.54)" id="clip0_1_5098" x="-110" y="-235.715" rx="20" ry="20" width="220" height="471.43" />
</clipPath>
<path style="stroke: none; stroke-width: 1; stroke-dasharray: none; stroke-linecap: butt; stroke-dashoffset: 0; stroke-linejoin: miter; stroke-miterlimit: 4; fill: rgb(255,255,255); fill-rule: evenodd; opacity: 1;" vector-effect="non-scaling-stroke"  transform=" translate(-53.81, -451.26)" d="M 51.0233 439.001 C 51.4697 439.019 51.8423 439.347 51.9157 439.788 L 54.9996 458.291 L 57.622 449.113 C 57.7356 448.715 58.0948 448.438 58.5081 448.429 C 58.9214 448.42 59.2923 448.681 59.423 449.074 L 61.0939 454.086 L 64.1857 454.086 C 64.7064 454.086 65.1286 454.508 65.1286 455.029 C 65.1286 455.55 64.7064 455.972 64.1857 455.972 L 60.4143 455.972 C 60.0085 455.972 59.6481 455.712 59.5198 455.327 L 58.5979 452.561 L 55.6637 462.831 C 55.5426 463.255 55.144 463.538 54.7038 463.513 C 54.2637 463.488 53.8996 463.162 53.8271 462.727 L 50.801 444.57 L 48.129 455.258 C 48.0241 455.677 47.6469 455.972 47.2143 455.972 L 43.4429 455.972 C 42.9221 455.972 42.5 455.55 42.5 455.029 C 42.5 454.508 42.9221 454.086 43.4429 454.086 L 46.4781 454.086 L 50.071 439.714 C 50.1794 439.281 50.577 438.983 51.0233 439.001 Z" stroke-linecap="round" />
</g>
		<g transform="matrix(1 0 0 1 -75.91 209.32)" clip-path="url(#CLIPPATH_323)"  >
<clipPath id="CLIPPATH_323" >
	<rect transform="matrix(1 0 0 1 64.43 -209.31)" id="clip0_1_5098" x="-110" y="-235.715" rx="20" ry="20" width="220" height="471.43" />
</clipPath>
<path style="stroke: none; stroke-width: 1; stroke-dasharray: none; stroke-linecap: butt; stroke-dashoffset: 0; stroke-linejoin: miter; stroke-miterlimit: 4; fill: rgb(255,255,255); fill-rule: evenodd; opacity: 1;" vector-effect="non-scaling-stroke"  transform=" translate(-66.07, -455.03)" d="M 66.0715 454.086 C 65.5508 454.086 65.1286 454.508 65.1286 455.029 C 65.1286 455.549 65.5508 455.972 66.0715 455.972 C 66.5922 455.972 67.0143 455.549 67.0143 455.029 C 67.0143 454.508 66.5922 454.086 66.0715 454.086 Z M 63.2429 455.029 C 63.2429 453.467 64.5093 452.2 66.0715 452.2 C 67.6337 452.2 68.9001 453.467 68.9001 455.029 C 68.9001 456.591 67.6337 457.857 66.0715 457.857 C 64.5093 457.857 63.2429 456.591 63.2429 455.029 Z" stroke-linecap="round" />
</g>
		<g transform="matrix(1 0 0 1 -13.54 203.49)" clip-path="url(#CLIPPATH_324)"  >
<clipPath id="CLIPPATH_324" >
	<rect transform="matrix(1 0 0 1 2.06 -203.48)" id="clip0_1_5098" x="-110" y="-235.715" rx="20" ry="20" width="220" height="471.43" />
</clipPath>
<path style="stroke: none; stroke-width: 1; stroke-dasharray: none; stroke-linecap: butt; stroke-dashoffset: 0; stroke-linejoin: miter; stroke-miterlimit: 4; fill: rgb(255,255,255); fill-rule: evenodd; opacity: 1;" vector-effect="non-scaling-stroke"  transform=" translate(-128.44, -449.2)" d="M 122.776 440.719 C 124.453 439.598 126.426 439 128.443 439 L 128.443 439.943 L 128.443 439 C 131.148 439 133.742 440.075 135.655 441.988 C 137.568 443.901 138.643 446.495 138.643 449.2 C 138.643 451.218 138.045 453.19 136.924 454.867 C 135.803 456.544 134.21 457.852 132.346 458.624 C 130.482 459.396 128.432 459.598 126.453 459.204 C 124.474 458.811 122.657 457.839 121.23 456.413 C 119.804 454.986 118.832 453.169 118.439 451.19 C 118.045 449.212 118.247 447.161 119.019 445.297 C 119.791 443.433 121.099 441.84 122.776 440.719 Z M 128.443 440.886 C 126.798 440.886 125.191 441.374 123.824 442.287 C 122.456 443.201 121.391 444.499 120.762 446.018 C 120.132 447.538 119.968 449.209 120.288 450.822 C 120.609 452.435 121.401 453.916 122.564 455.079 C 123.727 456.242 125.208 457.034 126.821 457.355 C 128.434 457.675 130.105 457.511 131.625 456.882 C 133.144 456.252 134.442 455.187 135.356 453.819 C 136.27 452.452 136.757 450.845 136.757 449.2" stroke-linecap="round" />
</g>
		<g transform="matrix(1 0 0 1 -3.4 213.63)" clip-path="url(#CLIPPATH_325)"  >
<clipPath id="CLIPPATH_325" >
	<rect transform="matrix(1 0 0 1 -8.08 -213.62)" id="clip0_1_5098" x="-110" y="-235.715" rx="20" ry="20" width="220" height="471.43" />
</clipPath>
<path style="stroke: none; stroke-width: 1; stroke-dasharray: none; stroke-linecap: butt; stroke-dashoffset: 0; stroke-linejoin: miter; stroke-miterlimit: 4; fill: rgb(255,255,255); fill-rule: evenodd; opacity: 1;" vector-effect="non-scaling-stroke"  transform=" translate(-138.58, -459.34)" d="M 134.683 455.44 C 135.051 455.072 135.648 455.072 136.016 455.44 L 142.481 461.905 C 142.849 462.273 142.849 462.87 142.481 463.238 C 142.113 463.607 141.516 463.607 141.148 463.238 L 134.683 456.773 C 134.314 456.405 134.314 455.808 134.683 455.44 Z" stroke-linecap="round" />
</g>
		<g transform="matrix(1 0 0 1 63.31 199.88)" clip-path="url(#CLIPPATH_326)"  >
<clipPath id="CLIPPATH_326" >
	<rect transform="matrix(1 0 0 1 -74.8 -199.89)" id="clip0_1_5098" x="-110" y="-235.715" rx="20" ry="20" width="220" height="471.43" />
</clipPath>
<path style="stroke: none; stroke-width: 1; stroke-dasharray: none; stroke-linecap: butt; stroke-dashoffset: 0; stroke-linejoin: miter; stroke-miterlimit: 4; fill: rgb(255,255,255); fill-rule: evenodd; opacity: 1;" vector-effect="non-scaling-stroke"  transform=" translate(-205.3, -445.6)" d="M 193.986 445.6 C 193.986 445.079 194.408 444.657 194.929 444.657 L 215.672 444.657 C 216.192 444.657 216.614 445.079 216.614 445.6 C 216.614 446.121 216.192 446.543 215.672 446.543 L 194.929 446.543 C 194.408 446.543 193.986 446.121 193.986 445.6 Z" stroke-linecap="round" />
</g>
		<g transform="matrix(1 0 0 1 63.31 205.54)" clip-path="url(#CLIPPATH_327)"  >
<clipPath id="CLIPPATH_327" >
	<rect transform="matrix(1 0 0 1 -74.8 -205.54)" id="clip0_1_5098" x="-110" y="-235.715" rx="20" ry="20" width="220" height="471.43" />
</clipPath>
<path style="stroke: none; stroke-width: 1; stroke-dasharray: none; stroke-linecap: butt; stroke-dashoffset: 0; stroke-linejoin: miter; stroke-miterlimit: 4; fill: rgb(255,255,255); fill-rule: evenodd; opacity: 1;" vector-effect="non-scaling-stroke"  transform=" translate(-205.3, -451.26)" d="M 193.986 451.257 C 193.986 450.737 194.408 450.314 194.929 450.314 L 215.672 450.314 C 216.192 450.314 216.614 450.737 216.614 451.257 C 216.614 451.778 216.192 452.2 215.672 452.2 L 194.929 452.2 C 194.408 452.2 193.986 451.778 193.986 451.257 Z" stroke-linecap="round" />
</g>
		<g transform="matrix(1 0 0 1 63.31 211.2)" clip-path="url(#CLIPPATH_328)"  >
<clipPath id="CLIPPATH_328" >
	<rect transform="matrix(1 0 0 1 -74.8 -211.2)" id="clip0_1_5098" x="-110" y="-235.715" rx="20" ry="20" width="220" height="471.43" />
</clipPath>
<path style="stroke: none; stroke-width: 1; stroke-dasharray: none; stroke-linecap: butt; stroke-dashoffset: 0; stroke-linejoin: miter; stroke-miterlimit: 4; fill: rgb(255,255,255); fill-rule: evenodd; opacity: 1;" vector-effect="non-scaling-stroke"  transform=" translate(-205.3, -456.91)" d="M 193.986 456.915 C 193.986 456.394 194.408 455.972 194.929 455.972 L 215.672 455.972 C 216.192 455.972 216.614 456.394 216.614 456.915 C 216.614 457.435 216.192 457.857 215.672 457.857 L 194.929 457.857 C 194.408 457.857 193.986 457.435 193.986 456.915 Z" stroke-linecap="round" />
</g>
		<g transform="matrix(1 0 0 1 -91.23 -172.23)" clip-path="url(#CLIPPATH_329)"  >
<clipPath id="CLIPPATH_329" >
	<rect transform="matrix(1 0 0 1 79.75 172.22)" id="clip0_1_5098" x="-110" y="-235.715" rx="20" ry="20" width="220" height="471.43" />
</clipPath>
<path style="stroke: none; stroke-width: 1; stroke-dasharray: none; stroke-linecap: butt; stroke-dashoffset: 0; stroke-linejoin: miter; stroke-miterlimit: 4; fill: rgb(255,255,255); fill-rule: evenodd; opacity: 1;" vector-effect="non-scaling-stroke"  transform=" translate(-50.75, -73.49)" d="M 55.9929 63.9999 C 56.5452 64.5522 56.5452 65.4477 55.9929 66 L 48.5072 73.4857 L 55.9929 80.9714 C 56.5452 81.5237 56.5452 82.4192 55.9929 82.9715 C 55.4405 83.5238 54.545 83.5238 53.9927 82.9715 L 45.507 74.4858 C 44.9547 73.9334 44.9547 73.038 45.507 72.4856 L 53.9927 63.9999 C 54.545 63.4476 55.4405 63.4476 55.9929 63.9999 Z" stroke-linecap="round" />
</g>
		<g transform="matrix(1 0 0 1 -85.69 -172.23)" clip-path="url(#CLIPPATH_330)"  >
<clipPath id="CLIPPATH_330" >
	<rect transform="matrix(1 0 0 1 74.21 172.22)" id="clip0_1_5098" x="-110" y="-235.715" rx="20" ry="20" width="220" height="471.43" />
</clipPath>
<path style="stroke: none; stroke-width: 1; stroke-dasharray: none; stroke-linecap: butt; stroke-dashoffset: 0; stroke-linejoin: miter; stroke-miterlimit: 4; fill: rgb(255,255,255); fill-rule: evenodd; opacity: 1;" vector-effect="non-scaling-stroke"  transform=" translate(-56.29, -73.49)" d="M 46.2715 73.4856 C 46.2715 72.7045 46.9047 72.0713 47.6858 72.0713 L 64.8929 72.0713 C 65.674 72.0713 66.3072 72.7045 66.3072 73.4856 C 66.3072 74.2667 65.674 74.8999 64.8929 74.8999 L 47.6858 74.8999 C 46.9047 74.8999 46.2715 74.2667 46.2715 73.4856 Z" stroke-linecap="round" />
</g>
		<g transform="matrix(1 0 0 1 -11.48 -172.23)" clip-path="url(#CLIPPATH_331)"  >
<clipPath id="CLIPPATH_331" >
	<rect transform="matrix(1 0 0 1 0 172.22)" id="clip0_1_5098" x="-110" y="-235.715" rx="20" ry="20" width="220" height="471.43" />
</clipPath>
<path style="stroke: none; stroke-width: 1; stroke-dasharray: none; stroke-linecap: butt; stroke-dashoffset: 0; stroke-linejoin: miter; stroke-miterlimit: 4; fill: rgb(186,230,253); fill-rule: nonzero; opacity: 1;" vector-effect="non-scaling-stroke"  transform=" translate(-130.5, -73.49)" d="M 89.0142 73.4858 C 89.0142 70.7086 91.2655 68.4573 94.0427 68.4573 L 166.957 68.4573 C 169.734 68.4573 171.986 70.7086 171.986 73.4858 C 171.986 76.2631 169.734 78.5144 166.957 78.5144 L 94.0427 78.5144 C 91.2655 78.5144 89.0142 76.2631 89.0142 73.4858 Z" stroke-linecap="round" />
</g>
		<g transform="matrix(1 0 0 1 -71.2 -123.2)" clip-path="url(#CLIPPATH_332)"  >
<clipPath id="CLIPPATH_332" >
	<rect transform="matrix(1 0 0 1 59.71 123.2)" id="clip0_1_5098" x="-110" y="-235.715" rx="20" ry="20" width="220" height="471.43" />
</clipPath>
<path style="stroke: none; stroke-width: 1; stroke-dasharray: none; stroke-linecap: butt; stroke-dashoffset: 0; stroke-linejoin: miter; stroke-miterlimit: 4; fill: rgb(255,255,255); fill-rule: nonzero; opacity: 1;" vector-effect="non-scaling-stroke"  transform=" translate(-70.79, -122.51)" d="M 40.6143 122.514 C 40.6143 120.431 42.3028 118.743 44.3857 118.743 L 97.1857 118.743 C 99.2686 118.743 100.957 120.431 100.957 122.514 C 100.957 124.597 99.2686 126.286 97.1857 126.286 L 44.3857 126.286 C 42.3028 126.286 40.6143 124.597 40.6143 122.514 Z" stroke-linecap="round" />
</g>
		<g transform="matrix(1 0 0 1 -57.06 -105.6)" clip-path="url(#CLIPPATH_333)"  >
<clipPath id="CLIPPATH_333" >
	<rect transform="matrix(1 0 0 1 45.57 105.6)" id="clip0_1_5098" x="-110" y="-235.715" rx="20" ry="20" width="220" height="471.43" />
</clipPath>
<path style="stroke: none; stroke-width: 1; stroke-dasharray: none; stroke-linecap: butt; stroke-dashoffset: 0; stroke-linejoin: miter; stroke-miterlimit: 4; fill: rgb(255,255,255); fill-rule: nonzero; opacity: 1;" vector-effect="non-scaling-stroke"  transform=" translate(-84.93, -140.11)" d="M 40.6143 140.114 C 40.6143 138.032 42.3028 136.343 44.3857 136.343 L 125.471 136.343 C 127.554 136.343 129.243 138.032 129.243 140.114 C 129.243 142.197 127.554 143.886 125.471 143.886 L 44.3857 143.886 C 42.3028 143.886 40.6143 142.197 40.6143 140.114 Z" stroke-linecap="round" />
</g>
		<g transform="matrix(1 0 0 1 4.23 -123.2)" clip-path="url(#CLIPPATH_334)"  >
<clipPath id="CLIPPATH_334" >
	<rect transform="matrix(1 0 0 1 -15.71 123.2)" id="clip0_1_5098" x="-110" y="-235.715" rx="20" ry="20" width="220" height="471.43" />
</clipPath>
<path style="stroke: none; stroke-width: 1; stroke-dasharray: none; stroke-linecap: butt; stroke-dashoffset: 0; stroke-linejoin: miter; stroke-miterlimit: 4; fill: rgb(255,255,255); fill-rule: nonzero; opacity: 1;" vector-effect="non-scaling-stroke"  transform=" translate(-146.21, -122.51)" d="M 111.014 122.514 C 111.014 120.431 112.703 118.743 114.786 118.743 L 177.643 118.743 C 179.726 118.743 181.414 120.431 181.414 122.514 C 181.414 124.597 179.726 126.286 177.643 126.286 L 114.786 126.286 C 112.703 126.286 111.014 124.597 111.014 122.514 Z" stroke-linecap="round" />
</g>
		<g transform="matrix(1 0 0 1 -63.66 -30.16)" clip-path="url(#CLIPPATH_335)"  >
<clipPath id="CLIPPATH_335" >
	<rect transform="matrix(1 0 0 1 0.01 0.01)" id="clip1_1_5098" clip-path="url(#undefined)" x="-37.715" y="-51.545" rx="20" ry="20" width="75.43" height="103.09" />
</clipPath>
<rect style="stroke: none; stroke-width: 1; stroke-dasharray: none; stroke-linecap: butt; stroke-dashoffset: 0; stroke-linejoin: miter; stroke-miterlimit: 4; fill: rgb(255,255,255); fill-rule: nonzero; opacity: 1;" vector-effect="non-scaling-stroke"  x="-37.715" y="-51.545" rx="20" ry="20" width="75.43" height="103.09" />
</g>
		<g transform="matrix(1 0 0 1 -98.07 21.46)" clip-path="url(#CLIPPATH_336)"  >
<clipPath id="CLIPPATH_336" >
	<rect transform="matrix(1 0 0 1 34.43 -51.64)" id="clip1_1_5098" clip-path="url(#undefined)" x="-37.715" y="-51.545" rx="20" ry="20" width="75.43" height="103.09" />
</clipPath>
<path style="stroke: none; stroke-width: 1; stroke-dasharray: none; stroke-linecap: butt; stroke-dashoffset: 0; stroke-linejoin: miter; stroke-miterlimit: 4; fill: rgb(251,191,36); fill-rule: nonzero; opacity: 1;" vector-effect="non-scaling-stroke"  transform=" translate(-43.9, -267.18)" d="M 90.8593 267.175 C 90.8593 293.26 69.8367 314.407 43.904 314.407 C 17.9713 314.407 -3.05127 293.26 -3.05127 267.175 C -3.05127 241.089 17.9713 219.943 43.904 219.943 C 69.8367 219.943 90.8593 241.089 90.8593 267.175 Z" stroke-linecap="round" />
</g>
		<g transform="matrix(1 0 0 1 -55.61 -50.73)" clip-path="url(#CLIPPATH_337)"  >
<clipPath id="CLIPPATH_337" >
	<rect transform="matrix(1 0 0 1 -8.04 20.56)" id="clip1_1_5098" clip-path="url(#undefined)" x="-37.715" y="-51.545" rx="20" ry="20" width="75.43" height="103.09" />
</clipPath>
<path style="stroke: none; stroke-width: 1; stroke-dasharray: none; stroke-linecap: butt; stroke-dashoffset: 0; stroke-linejoin: miter; stroke-miterlimit: 4; fill: rgb(255,255,255); fill-rule: nonzero; opacity: 1;" vector-effect="non-scaling-stroke"  transform=" translate(-86.37, -194.99)" d="M 103.421 194.987 C 103.421 204.457 95.7882 212.134 86.3732 212.134 C 76.9581 212.134 69.3257 204.457 69.3257 194.987 C 69.3257 185.516 76.9581 177.839 86.3732 177.839 C 95.7882 177.839 103.421 185.516 103.421 194.987 Z" stroke-linecap="round" />
</g>
		<g transform="matrix(1 0 0 1 -55.61 -50.73)" clip-path="url(#CLIPPATH_338)"  >
<clipPath id="CLIPPATH_338" >
	<rect transform="matrix(1 0 0 1 -8.04 20.56)" id="clip1_1_5098" clip-path="url(#undefined)" x="-37.715" y="-51.545" rx="20" ry="20" width="75.43" height="103.09" />
</clipPath>
<path style="stroke: none; stroke-width: 1; stroke-dasharray: none; stroke-linecap: butt; stroke-dashoffset: 0; stroke-linejoin: miter; stroke-miterlimit: 4; fill: rgb(186,230,253); fill-rule: evenodd; opacity: 1;" vector-effect="non-scaling-stroke"  transform=" translate(-86.37, -194.99)" d="M 86.3732 210.249 C 94.7363 210.249 101.535 203.426 101.535 194.987 C 101.535 186.547 94.7363 179.724 86.3732 179.724 C 78.01 179.724 71.2114 186.547 71.2114 194.987 C 71.2114 203.426 78.01 210.249 86.3732 210.249 Z M 86.3732 212.134 C 95.7882 212.134 103.421 204.457 103.421 194.987 C 103.421 185.516 95.7882 177.839 86.3732 177.839 C 76.9581 177.839 69.3257 185.516 69.3257 194.987 C 69.3257 204.457 76.9581 212.134 86.3732 212.134 Z" stroke-linecap="round" />
</g>
		<g transform="matrix(1 0 0 1 -63.66 -30.16)" clip-path="url(#CLIPPATH_339)"  >
<clipPath id="CLIPPATH_339" >
	<rect transform="matrix(1 0 0 1 52.17 30.18)" id="clip0_1_5098" x="-110" y="-235.715" rx="20" ry="20" width="220" height="471.43" />
</clipPath>
<rect style="stroke: rgb(56,189,248); stroke-width: 2; stroke-dasharray: none; stroke-linecap: butt; stroke-dashoffset: 0; stroke-linejoin: miter; stroke-miterlimit: 4; fill: none; fill-rule: nonzero; opacity: 1;" vector-effect="non-scaling-stroke"  x="-36.715" y="-50.545" rx="19" ry="19" width="73.43" height="101.09" />
</g>
		<g transform="matrix(1 0 0 1 21.84 -30.16)" clip-path="url(#CLIPPATH_340)"  >
<clipPath id="CLIPPATH_340" >
	<rect transform="matrix(1 0 0 1 -33.31 30.18)" id="clip0_1_5098" x="-110" y="-235.715" rx="20" ry="20" width="220" height="471.43" />
</clipPath>
<rect style="stroke: none; stroke-width: 1; stroke-dasharray: none; stroke-linecap: butt; stroke-dashoffset: 0; stroke-linejoin: miter; stroke-miterlimit: 4; fill: rgb(255,255,255); fill-rule: nonzero; opacity: 1;" vector-effect="non-scaling-stroke"  x="-37.715" y="-51.545" rx="20" ry="20" width="75.43" height="103.09" />
</g>
		<g transform="matrix(1 0 0 1 21.84 -30.16)" clip-path="url(#CLIPPATH_341)"  >
<clipPath id="CLIPPATH_341" >
	<rect transform="matrix(1 0 0 1 -33.31 30.18)" id="clip0_1_5098" x="-110" y="-235.715" rx="20" ry="20" width="220" height="471.43" />
</clipPath>
<rect style="stroke: rgb(56,189,248); stroke-width: 2; stroke-dasharray: none; stroke-linecap: butt; stroke-dashoffset: 0; stroke-linejoin: miter; stroke-miterlimit: 4; fill: none; fill-rule: nonzero; opacity: 1;" vector-effect="non-scaling-stroke"  x="-36.715" y="-50.545" rx="19" ry="19" width="73.43" height="101.09" />
</g>
		<g transform="matrix(1 0 0 1 40.69 -54.04)" clip-path="url(#CLIPPATH_342)"  >
<clipPath id="CLIPPATH_342" >
	<rect transform="matrix(1 0 0 1 -52.17 54.03)" id="clip0_1_5098" x="-110" y="-235.715" rx="20" ry="20" width="220" height="471.43" />
</clipPath>
<path style="stroke: none; stroke-width: 1; stroke-dasharray: none; stroke-linecap: butt; stroke-dashoffset: 0; stroke-linejoin: miter; stroke-miterlimit: 4; fill: rgb(251,191,36); fill-rule: nonzero; opacity: 1;" vector-effect="non-scaling-stroke"  transform=" translate(-182.67, -191.68)" d="M 191.187 191.677 C 191.187 196.33 187.375 200.101 182.671 200.101 C 177.968 200.101 174.155 196.33 174.155 191.677 C 174.155 187.025 177.968 183.254 182.671 183.254 C 187.375 183.254 191.187 187.025 191.187 191.677 Z" stroke-linecap="round" />
</g>
		<g transform="matrix(1 0 0 1 18.49 -8.01)" clip-path="url(#CLIPPATH_343)"  >
<clipPath id="CLIPPATH_343" >
	<rect transform="matrix(1 0 0 1 -29.97 8)" id="clip0_1_5098" x="-110" y="-235.715" rx="20" ry="20" width="220" height="471.43" />
</clipPath>
<path style="stroke: none; stroke-width: 1; stroke-dasharray: none; stroke-linecap: butt; stroke-dashoffset: 0; stroke-linejoin: miter; stroke-miterlimit: 4; fill: rgb(186,230,253); fill-rule: nonzero; opacity: 1;" vector-effect="non-scaling-stroke"  transform=" translate(-160.47, -237.71)" d="M 177.805 237.706 C 177.805 247.177 170.043 254.854 160.468 254.854 C 150.894 254.854 143.132 247.177 143.132 237.706 C 143.132 228.235 150.894 220.558 160.468 220.558 C 170.043 220.558 177.805 228.235 177.805 237.706 Z" stroke-linecap="round" />
</g>
		<g transform="matrix(1 0 0 1 18.49 -8.01)" clip-path="url(#CLIPPATH_344)"  >
<clipPath id="CLIPPATH_344" >
	<rect transform="matrix(1 0 0 1 -29.97 8)" id="clip0_1_5098" x="-110" y="-235.715" rx="20" ry="20" width="220" height="471.43" />
</clipPath>
<path style="stroke: none; stroke-width: 1; stroke-dasharray: none; stroke-linecap: butt; stroke-dashoffset: 0; stroke-linejoin: miter; stroke-miterlimit: 4; fill: rgb(186,230,253); fill-rule: evenodd; opacity: 1;" vector-effect="non-scaling-stroke"  transform=" translate(-160.47, -237.71)" d="M 160.468 252.968 C 169.021 252.968 175.919 246.116 175.919 237.706 C 175.919 229.296 169.021 222.444 160.468 222.444 C 151.916 222.444 145.018 229.296 145.018 237.706 C 145.018 246.116 151.916 252.968 160.468 252.968 Z M 160.468 254.854 C 170.043 254.854 177.805 247.177 177.805 237.706 C 177.805 228.235 170.043 220.558 160.468 220.558 C 150.894 220.558 143.132 228.235 143.132 237.706 C 143.132 247.177 150.894 254.854 160.468 254.854 Z" stroke-linecap="round" />
</g>
		<g transform="matrix(1 0 0 1 107.31 -30.16)" clip-path="url(#CLIPPATH_345)"  >
<clipPath id="CLIPPATH_345" >
	<rect transform="matrix(1 0 0 1 -118.8 30.18)" id="clip0_1_5098" x="-110" y="-235.715" rx="20" ry="20" width="220" height="471.43" />
</clipPath>
<rect style="stroke: none; stroke-width: 1; stroke-dasharray: none; stroke-linecap: butt; stroke-dashoffset: 0; stroke-linejoin: miter; stroke-miterlimit: 4; fill: rgb(255,255,255); fill-rule: nonzero; opacity: 1;" vector-effect="non-scaling-stroke"  x="-37.715" y="-51.545" rx="20" ry="20" width="75.43" height="103.09" />
</g>
		<g transform="matrix(1 0 0 1 107.31 -30.16)" clip-path="url(#CLIPPATH_346)"  >
<clipPath id="CLIPPATH_346" >
	<rect transform="matrix(1 0 0 1 -118.8 30.18)" id="clip0_1_5098" x="-110" y="-235.715" rx="20" ry="20" width="220" height="471.43" />
</clipPath>
<rect style="stroke: rgb(56,189,248); stroke-width: 2; stroke-dasharray: none; stroke-linecap: butt; stroke-dashoffset: 0; stroke-linejoin: miter; stroke-miterlimit: 4; fill: none; fill-rule: nonzero; opacity: 1;" vector-effect="non-scaling-stroke"  x="-36.715" y="-50.545" rx="19" ry="19" width="73.43" height="101.09" />
</g>
		<g transform="matrix(1 0 0 1 98.52 -32.57)" clip-path="url(#CLIPPATH_347)"  >
<clipPath id="CLIPPATH_347" >
	<rect transform="matrix(1 0 0 1 -110 32.58)" id="clip0_1_5098" x="-110" y="-235.715" rx="20" ry="20" width="220" height="471.43" />
</clipPath>
<path style="stroke: none; stroke-width: 1; stroke-dasharray: none; stroke-linecap: butt; stroke-dashoffset: 0; stroke-linejoin: miter; stroke-miterlimit: 4; fill: rgb(255,255,255); fill-rule: nonzero; opacity: 1;" vector-effect="non-scaling-stroke"  transform=" translate(-240.5, -213.14)" d="M 240.5 190.4 L 246.411 207.406 L 264.412 207.773 L 250.065 218.651 L 255.279 235.884 L 240.5 225.6 L 225.721 235.884 L 230.935 218.651 L 216.588 207.773 L 234.588 207.406 L 240.5 190.4 Z" stroke-linecap="round" />
</g>
		<g transform="matrix(1 0 0 1 98.52 -32.57)" clip-path="url(#CLIPPATH_348)"  >
<clipPath id="CLIPPATH_348" >
	<rect transform="matrix(1 0 0 1 -110 32.58)" id="clip0_1_5098" x="-110" y="-235.715" rx="20" ry="20" width="220" height="471.43" />
</clipPath>
<path style="stroke: none; stroke-width: 1; stroke-dasharray: none; stroke-linecap: butt; stroke-dashoffset: 0; stroke-linejoin: miter; stroke-miterlimit: 4; fill: rgb(251,191,36); fill-rule: evenodd; opacity: 1;" vector-effect="non-scaling-stroke"  transform=" translate(-240.5, -213.14)" d="M 246.411 207.406 L 240.5 190.4 L 234.588 207.406 L 216.588 207.773 L 230.935 218.651 L 225.721 235.884 L 240.5 225.6 L 255.279 235.884 L 250.065 218.651 L 264.412 207.773 L 246.411 207.406 Z M 258.95 209.548 L 245.061 209.265 L 240.5 196.143 L 235.939 209.265 L 222.05 209.548 L 233.12 217.941 L 229.097 231.237 L 240.5 223.303 L 251.903 231.237 L 247.88 217.941 L 258.95 209.548 Z" stroke-linecap="round" />
</g>
		<g transform="matrix(1 0 0 1 -11.48 0)"  >
<rect style="stroke: rgb(255,255,255); stroke-width: 5; stroke-dasharray: none; stroke-linecap: butt; stroke-dashoffset: 0; stroke-linejoin: miter; stroke-miterlimit: 4; fill: none; fill-rule: nonzero; opacity: 1;" vector-effect="non-scaling-stroke"  x="-107.5" y="-233.215" rx="17.5" ry="17.5" width="215" height="466.43" />
</g>
</g>
</g>
<g transform="matrix(0.96 0 0 0.96 1004.62 615.71)"  >
<g style="" vector-effect="non-scaling-stroke"   >
		<g transform="matrix(1 0 0 1 0 0)"  >
<rect style="stroke: none; stroke-width: 1; stroke-dasharray: none; stroke-linecap: butt; stroke-dashoffset: 0; stroke-linejoin: miter; stroke-miterlimit: 4; fill: rgb(255,255,255); fill-rule: nonzero; opacity: 1;" vector-effect="non-scaling-stroke"  x="-35.575" y="-51.545" rx="20" ry="20" width="71.15" height="103.09" />
</g>
		<g transform="matrix(1 0 0 1 0 0)"  >
<rect style="stroke: rgb(56,189,248); stroke-width: 2; stroke-dasharray: none; stroke-linecap: butt; stroke-dashoffset: 0; stroke-linejoin: miter; stroke-miterlimit: 4; fill: none; fill-rule: nonzero; opacity: 1;" vector-effect="non-scaling-stroke"  x="-34.575" y="-50.545" rx="19" ry="19" width="69.15" height="101.09" />
</g>
		<g transform="matrix(1 0 0 1 15.49 -6.72)"  >
<path style="stroke: none; stroke-width: 1; stroke-dasharray: none; stroke-linecap: butt; stroke-dashoffset: 0; stroke-linejoin: miter; stroke-miterlimit: 4; fill: rgb(255,255,255); fill-rule: nonzero; opacity: 1;" vector-effect="non-scaling-stroke"  transform=" translate(-89.45, -59.83)" d="M 105.529 59.8271 C 105.529 69.298 98.3295 76.9757 89.448 76.9757 C 80.5666 76.9757 73.3667 69.298 73.3667 59.8271 C 73.3667 50.3562 80.5666 42.6785 89.448 42.6785 C 98.3295 42.6785 105.529 50.3562 105.529 59.8271 Z" stroke-linecap="round" />
</g>
		<g transform="matrix(1 0 0 1 15.49 -6.72)"  >
<path style="stroke: none; stroke-width: 1; stroke-dasharray: none; stroke-linecap: butt; stroke-dashoffset: 0; stroke-linejoin: miter; stroke-miterlimit: 4; fill: rgb(186,230,253); fill-rule: evenodd; opacity: 1;" vector-effect="non-scaling-stroke"  transform=" translate(-89.45, -59.83)" d="M 89.448 75.0899 C 97.3373 75.0899 103.75 68.267 103.75 59.8271 C 103.75 51.3872 97.3373 44.5643 89.448 44.5643 C 81.5588 44.5643 75.1455 51.3872 75.1455 59.8271 C 75.1455 68.267 81.5588 75.0899 89.448 75.0899 Z M 89.448 76.9757 C 98.3295 76.9757 105.529 69.298 105.529 59.8271 C 105.529 50.3562 98.3295 42.6785 89.448 42.6785 C 80.5666 42.6785 73.3667 50.3562 73.3667 59.8271 C 73.3667 69.298 80.5666 76.9757 89.448 76.9757 Z" stroke-linecap="round" />
</g>
		<g transform="matrix(1 0 0 1 -8.3 -2.4)"  >
<path style="stroke: none; stroke-width: 1; stroke-dasharray: none; stroke-linecap: butt; stroke-dashoffset: 0; stroke-linejoin: miter; stroke-miterlimit: 4; fill: rgb(255,255,255); fill-rule: nonzero; opacity: 1;" vector-effect="non-scaling-stroke"  transform=" translate(-65.66, -64.14)" d="M 65.6584 41.4011 L 71.2348 58.4083 L 88.2155 58.7751 L 74.6813 69.653 L 79.5995 86.8868 L 65.6584 76.6026 L 51.7174 86.8868 L 56.6356 69.653 L 43.1013 58.7751 L 60.082 58.4083 L 65.6584 41.4011 Z" stroke-linecap="round" />
</g>
		<g transform="matrix(1 0 0 1 -8.3 -2.4)"  >
<path style="stroke: none; stroke-width: 1; stroke-dasharray: none; stroke-linecap: butt; stroke-dashoffset: 0; stroke-linejoin: miter; stroke-miterlimit: 4; fill: rgb(251,191,36); fill-rule: evenodd; opacity: 1;" vector-effect="non-scaling-stroke"  transform=" translate(-65.66, -64.14)" d="M 71.2348 58.4083 L 65.6584 41.4011 L 60.082 58.4083 L 43.1013 58.7751 L 56.6356 69.653 L 51.7174 86.8868 L 65.6584 76.6026 L 79.5995 86.8868 L 74.6813 69.653 L 88.2155 58.7751 L 71.2348 58.4083 Z M 83.0628 60.55 L 69.961 60.2669 L 65.6584 47.1447 L 61.3558 60.2669 L 48.254 60.55 L 58.6966 68.943 L 54.9019 82.2402 L 65.6584 74.3051 L 76.4149 82.2402 L 72.6202 68.943 L 83.0628 60.55 Z" stroke-linecap="round" />
</g>
</g>
</g>
<g transform="matrix(0 0 0 0 578.56 301.95)"  >
<g style=""   >
</g>
</g>
<g transform="matrix(0 0 0 0 348.62 417.61)"  >
<g style=""   >
</g>
</g>
<g transform="matrix(0 0 0 0 348.62 417.61)"  >
<g style=""   >
</g>
</g>
</svg>