<?xml version="1.0" encoding="UTF-8" standalone="no" ?>
<!DOCTYPE svg PUBLIC "-//W3C//DTD SVG 1.1//EN" "http://www.w3.org/Graphics/SVG/1.1/DTD/svg11.dtd">
<svg xmlns="http://www.w3.org/2000/svg" xmlns:xlink="http://www.w3.org/1999/xlink" version="1.1" width="960" height="1000" viewBox="0 0 960 1000" xml:space="preserve">
<desc>Created with Fabric.js 5.2.4</desc>
<defs>
</defs>
<rect x="0" y="0" width="100%" height="100%" fill="transparent"></rect>
<g transform="matrix(1 0 0 1 480 500)" id="80718238-1685-4766-81e3-54faac4b0709"  >
<rect style="stroke: none; stroke-width: 1; stroke-dasharray: none; stroke-linecap: butt; stroke-dashoffset: 0; stroke-linejoin: miter; stroke-miterlimit: 4; fill: rgb(255,255,255); fill-rule: nonzero; opacity: 1; visibility: hidden;" vector-effect="non-scaling-stroke"  x="-480" y="-500" rx="0" ry="0" width="960" height="1000" />
</g>
<g transform="matrix(0 0 0 0 0 0)" id="4dc1a602-747f-46a0-b26e-a8a025472d27"  >
</g>
<g transform="matrix(1 0 0 1 738.24 468)" id="302cb28b-e144-4cad-9388-193a4691d4d3"  >
<path style="stroke: rgb(0,0,0); stroke-width: 0; stroke-dasharray: none; stroke-linecap: butt; stroke-dashoffset: 0; stroke-linejoin: miter; stroke-miterlimit: 4; fill: rgb(251,191,36); fill-rule: nonzero; opacity: 1;" vector-effect="non-scaling-stroke"  transform=" translate(-573.27, -500.07)" d="M 546.478 53.6569 C 737.795 -56.8002 982.432 8.75001 1092.89 200.068 C 1203.34 391.385 1137.79 636.021 946.479 746.478 L 600.068 946.479 C 408.751 1056.93 164.114 991.386 53.6567 800.069 C -56.8004 608.751 8.74977 364.115 200.067 253.658 L 546.478 53.6569 Z" stroke-linecap="round" />
</g>
<g transform="matrix(1 0 0 1 462.99 540.2)"  >
<g style="" vector-effect="non-scaling-stroke"   >
		<g transform="matrix(1 0 0 1 -20.4 0)" clip-path="url(#CLIPPATH_111)"  >
<clipPath id="CLIPPATH_111" >
	<rect transform="matrix(1 0 0 1 0 0)" id="clip0_1_708" x="-210" y="-450" rx="20" ry="20" width="420" height="900" />
</clipPath>
<path style="stroke: none; stroke-width: 1; stroke-dasharray: none; stroke-linecap: butt; stroke-dashoffset: 0; stroke-linejoin: miter; stroke-miterlimit: 4; fill: rgb(224,242,254); fill-rule: nonzero; opacity: 1;" vector-effect="non-scaling-stroke"  transform=" translate(-230, -460)" d="M 20 10.0002 L 440 10.0002 L 440 910 L 20 910 L 20 10.0002 Z" stroke-linecap="round" />
</g>
		<g transform="matrix(1 0 0 1 19.2 189.6)" clip-path="url(#CLIPPATH_112)"  >
<clipPath id="CLIPPATH_112" >
	<rect transform="matrix(1 0 0 1 -39.6 -189.6)" id="clip0_1_708" x="-210" y="-450" rx="20" ry="20" width="420" height="900" />
</clipPath>
<path style="stroke: none; stroke-width: 1; stroke-dasharray: none; stroke-linecap: butt; stroke-dashoffset: 0; stroke-linejoin: miter; stroke-miterlimit: 4; fill: rgb(255,255,255); fill-rule: nonzero; opacity: 1;" vector-effect="non-scaling-stroke"  transform=" translate(-269.6, -649.6)" d="M 327.2 649.6 C 327.2 681.412 301.412 707.2 269.6 707.2 C 237.788 707.2 212 681.412 212 649.6 C 212 617.789 237.788 592 269.6 592 C 301.412 592 327.2 617.789 327.2 649.6 Z" stroke-linecap="round" />
</g>
		<g transform="matrix(1 0 0 1 19.2 189.6)" clip-path="url(#CLIPPATH_113)"  >
<clipPath id="CLIPPATH_113" >
	<rect transform="matrix(1 0 0 1 -39.6 -189.6)" id="clip0_1_708" x="-210" y="-450" rx="20" ry="20" width="420" height="900" />
</clipPath>
<path style="stroke: none; stroke-width: 1; stroke-dasharray: none; stroke-linecap: butt; stroke-dashoffset: 0; stroke-linejoin: miter; stroke-miterlimit: 4; fill: rgb(186,230,253); fill-rule: evenodd; opacity: 1;" vector-effect="non-scaling-stroke"  transform=" translate(-269.6, -649.6)" d="M 269.6 703.6 C 299.423 703.6 323.6 679.424 323.6 649.6 C 323.6 619.777 299.423 595.6 269.6 595.6 C 239.777 595.6 215.6 619.777 215.6 649.6 C 215.6 679.424 239.777 703.6 269.6 703.6 Z M 269.6 707.2 C 301.412 707.2 327.2 681.412 327.2 649.6 C 327.2 617.789 301.412 592 269.6 592 C 237.788 592 212 617.789 212 649.6 C 212 681.412 237.788 707.2 269.6 707.2 Z" stroke-linecap="round" />
</g>
		<g transform="matrix(1 0 0 1 172.8 189.6)" clip-path="url(#CLIPPATH_114)"  >
<clipPath id="CLIPPATH_114" >
	<rect transform="matrix(1 0 0 1 -193.2 -189.6)" id="clip0_1_708" x="-210" y="-450" rx="20" ry="20" width="420" height="900" />
</clipPath>
<path style="stroke: none; stroke-width: 1; stroke-dasharray: none; stroke-linecap: butt; stroke-dashoffset: 0; stroke-linejoin: miter; stroke-miterlimit: 4; fill: rgb(186,230,253); fill-rule: nonzero; opacity: 1;" vector-effect="non-scaling-stroke"  transform=" translate(-423.2, -649.6)" d="M 480.8 649.6 C 480.8 681.412 455.012 707.2 423.2 707.2 C 391.388 707.2 365.6 681.412 365.6 649.6 C 365.6 617.789 391.388 592 423.2 592 C 455.012 592 480.8 617.789 480.8 649.6 Z" stroke-linecap="round" />
</g>
		<g transform="matrix(1 0 0 1 172.8 189.6)" clip-path="url(#CLIPPATH_115)"  >
<clipPath id="CLIPPATH_115" >
	<rect transform="matrix(1 0 0 1 -193.2 -189.6)" id="clip0_1_708" x="-210" y="-450" rx="20" ry="20" width="420" height="900" />
</clipPath>
<path style="stroke: none; stroke-width: 1; stroke-dasharray: none; stroke-linecap: butt; stroke-dashoffset: 0; stroke-linejoin: miter; stroke-miterlimit: 4; fill: rgb(255,255,255); fill-rule: evenodd; opacity: 1;" vector-effect="non-scaling-stroke"  transform=" translate(-423.2, -649.6)" d="M 423.2 703.6 C 453.023 703.6 477.2 679.424 477.2 649.6 C 477.2 619.777 453.023 595.6 423.2 595.6 C 393.377 595.6 369.2 619.777 369.2 649.6 C 369.2 679.424 393.377 703.6 423.2 703.6 Z M 423.2 707.2 C 455.012 707.2 480.8 681.412 480.8 649.6 C 480.8 617.789 455.012 592 423.2 592 C 391.388 592 365.6 617.789 365.6 649.6 C 365.6 681.412 391.388 707.2 423.2 707.2 Z" stroke-linecap="round" />
</g>
		<g transform="matrix(1 0 0 1 -134.4 189.6)" clip-path="url(#CLIPPATH_116)"  >
<clipPath id="CLIPPATH_116" >
	<rect transform="matrix(1 0 0 1 114 -189.6)" id="clip0_1_708" x="-210" y="-450" rx="20" ry="20" width="420" height="900" />
</clipPath>
<path style="stroke: none; stroke-width: 1; stroke-dasharray: none; stroke-linecap: butt; stroke-dashoffset: 0; stroke-linejoin: miter; stroke-miterlimit: 4; fill: rgb(251,191,36); fill-rule: nonzero; opacity: 1;" vector-effect="non-scaling-stroke"  transform=" translate(-116, -649.6)" d="M 173.6 649.6 C 173.6 681.412 147.812 707.2 116 707.2 C 84.1884 707.2 58.4 681.412 58.4 649.6 C 58.4 617.789 84.1884 592 116 592 C 147.812 592 173.6 617.789 173.6 649.6 Z" stroke-linecap="round" />
</g>
		<g transform="matrix(1 0 0 1 -134.4 189.6)" clip-path="url(#CLIPPATH_117)"  >
<clipPath id="CLIPPATH_117" >
	<rect transform="matrix(1 0 0 1 114 -189.6)" id="clip0_1_708" x="-210" y="-450" rx="20" ry="20" width="420" height="900" />
</clipPath>
<path style="stroke: none; stroke-width: 1; stroke-dasharray: none; stroke-linecap: butt; stroke-dashoffset: 0; stroke-linejoin: miter; stroke-miterlimit: 4; fill: rgb(255,255,255); fill-rule: evenodd; opacity: 1;" vector-effect="non-scaling-stroke"  transform=" translate(-116, -649.6)" d="M 116 703.6 C 145.823 703.6 170 679.424 170 649.6 C 170 619.777 145.823 595.6 116 595.6 C 86.1766 595.6 62 619.777 62 649.6 C 62 679.424 86.1766 703.6 116 703.6 Z M 116 707.2 C 147.812 707.2 173.6 681.412 173.6 649.6 C 173.6 617.789 147.812 592 116 592 C 84.1884 592 58.4 617.789 58.4 649.6 C 58.4 681.412 84.1884 707.2 116 707.2 Z" stroke-linecap="round" />
</g>
		<g transform="matrix(1 0 0 1 -140.4 93.6)" clip-path="url(#CLIPPATH_118)"  >
<clipPath id="CLIPPATH_118" >
	<rect transform="matrix(1 0 0 1 120 -93.6)" id="clip0_1_708" x="-210" y="-450" rx="20" ry="20" width="420" height="900" />
</clipPath>
<path style="stroke: none; stroke-width: 1; stroke-dasharray: none; stroke-linecap: butt; stroke-dashoffset: 0; stroke-linejoin: miter; stroke-miterlimit: 4; fill: rgb(186,230,253); fill-rule: nonzero; opacity: 1;" vector-effect="non-scaling-stroke"  transform=" translate(-110, -553.6)" d="M 58.4 553.6 C 58.4 548.298 62.6981 544 68 544 L 152 544 C 157.302 544 161.6 548.298 161.6 553.6 C 161.6 558.902 157.302 563.2 152 563.2 L 68 563.2 C 62.6981 563.2 58.4 558.902 58.4 553.6 Z" stroke-linecap="round" />
</g>
		<g transform="matrix(1 0 0 1 -40.8 93.6)" clip-path="url(#CLIPPATH_119)"  >
<clipPath id="CLIPPATH_119" >
	<rect transform="matrix(1 0 0 1 20.4 -93.6)" id="clip0_1_708" x="-210" y="-450" rx="20" ry="20" width="420" height="900" />
</clipPath>
<path style="stroke: none; stroke-width: 1; stroke-dasharray: none; stroke-linecap: butt; stroke-dashoffset: 0; stroke-linejoin: miter; stroke-miterlimit: 4; fill: rgb(186,230,253); fill-rule: nonzero; opacity: 1;" vector-effect="non-scaling-stroke"  transform=" translate(-209.6, -553.6)" d="M 180.8 553.6 C 180.8 548.298 185.098 544 190.4 544 L 228.8 544 C 234.102 544 238.4 548.298 238.4 553.6 C 238.4 558.902 234.102 563.2 228.8 563.2 L 190.4 563.2 C 185.098 563.2 180.8 558.902 180.8 553.6 Z" stroke-linecap="round" />
</g>
		<g transform="matrix(1 0 0 1 122.4 -96)" clip-path="url(#CLIPPATH_120)"  >
<clipPath id="CLIPPATH_120" >
	<rect transform="matrix(1 0 0 1 -142.8 96)" id="clip0_1_708" x="-210" y="-450" rx="20" ry="20" width="420" height="900" />
</clipPath>
<path style="stroke: none; stroke-width: 1; stroke-dasharray: none; stroke-linecap: butt; stroke-dashoffset: 0; stroke-linejoin: miter; stroke-miterlimit: 4; fill: rgb(255,255,255); fill-rule: evenodd; opacity: 1;" vector-effect="non-scaling-stroke"  transform=" translate(-372.8, -364)" d="M 349.4 355.073 C 349.47 348.228 354.908 342.4 361.897 342.4 C 366.186 342.4 369.342 344.524 371.355 346.523 C 371.916 347.079 372.397 347.635 372.8 348.147 C 373.203 347.635 373.684 347.079 374.245 346.523 C 376.258 344.524 379.414 342.4 383.704 342.4 C 390.692 342.4 396.13 348.228 396.2 355.073 L 396.2 355.073 C 396.333 368.423 385.607 377.658 374.825 384.977 C 374.228 385.383 373.522 385.6 372.8 385.6 C 372.078 385.6 371.372 385.383 370.775 384.977 C 359.992 377.658 349.266 368.423 349.4 355.073 L 349.4 355.073 Z M 374.408 352.21 C 374.408 352.209 374.409 352.207 374.41 352.205 C 374.413 352.199 374.42 352.186 374.43 352.167 C 374.45 352.129 374.484 352.067 374.531 351.985 C 374.625 351.82 374.773 351.575 374.973 351.276 C 375.375 350.675 375.979 349.874 376.781 349.077 C 378.393 347.477 380.69 346 383.704 346 C 388.586 346 392.549 350.103 392.6 355.109 C 392.712 366.358 383.678 374.617 372.802 381.999 L 372.8 382 L 372.798 381.999 C 361.921 374.617 352.887 366.359 353 355.11" stroke-linecap="round" />
</g>
		<g transform="matrix(1 0 0 1 -150 -96)" clip-path="url(#CLIPPATH_121)"  >
<clipPath id="CLIPPATH_121" >
	<rect transform="matrix(1 0 0 1 129.6 96)" id="clip0_1_708" x="-210" y="-450" rx="20" ry="20" width="420" height="900" />
</clipPath>
<path style="stroke: none; stroke-width: 1; stroke-dasharray: none; stroke-linecap: butt; stroke-dashoffset: 0; stroke-linejoin: miter; stroke-miterlimit: 4; fill: rgb(186,230,253); fill-rule: nonzero; opacity: 1;" vector-effect="non-scaling-stroke"  transform=" translate(-100.4, -364)" d="M 58.4 364 C 58.4 358.698 62.6981 354.4 68 354.4 L 132.8 354.4 C 138.102 354.4 142.4 358.698 142.4 364 C 142.4 369.302 138.102 373.6 132.8 373.6 L 68 373.6 C 62.6981 373.6 58.4 369.302 58.4 364 Z" stroke-linecap="round" />
</g>
		<g transform="matrix(1 0 0 1 -25.2 -96)" clip-path="url(#CLIPPATH_122)"  >
<clipPath id="CLIPPATH_122" >
	<rect transform="matrix(1 0 0 1 4.8 96)" id="clip0_1_708" x="-210" y="-450" rx="20" ry="20" width="420" height="900" />
</clipPath>
<path style="stroke: none; stroke-width: 1; stroke-dasharray: none; stroke-linecap: butt; stroke-dashoffset: 0; stroke-linejoin: miter; stroke-miterlimit: 4; fill: rgb(186,230,253); fill-rule: nonzero; opacity: 1;" vector-effect="non-scaling-stroke"  transform=" translate(-225.2, -364)" d="M 161.6 364 C 161.6 358.698 165.898 354.4 171.2 354.4 L 279.2 354.4 C 284.502 354.4 288.8 358.698 288.8 364 C 288.8 369.302 284.502 373.6 279.2 373.6 L 171.2 373.6 C 165.898 373.6 161.6 369.302 161.6 364 Z" stroke-linecap="round" />
</g>
		<g transform="matrix(1 0 0 1 -134.4 -50.4)" clip-path="url(#CLIPPATH_123)"  >
<clipPath id="CLIPPATH_123" >
	<rect transform="matrix(1 0 0 1 114 50.4)" id="clip0_1_708" x="-210" y="-450" rx="20" ry="20" width="420" height="900" />
</clipPath>
<path style="stroke: none; stroke-width: 1; stroke-dasharray: none; stroke-linecap: butt; stroke-dashoffset: 0; stroke-linejoin: miter; stroke-miterlimit: 4; fill: rgb(255,255,255); fill-rule: nonzero; opacity: 1;" vector-effect="non-scaling-stroke"  transform=" translate(-116, -409.6)" d="M 58.4 409.6 C 58.4 405.624 61.6236 402.4 65.6 402.4 L 166.4 402.4 C 170.376 402.4 173.6 405.624 173.6 409.6 C 173.6 413.577 170.376 416.8 166.4 416.8 L 65.6 416.8 C 61.6236 416.8 58.4 413.577 58.4 409.6 Z" stroke-linecap="round" />
</g>
		<g transform="matrix(1 0 0 1 -107.4 -16.8)" clip-path="url(#CLIPPATH_124)"  >
<clipPath id="CLIPPATH_124" >
	<rect transform="matrix(1 0 0 1 87 16.8)" id="clip0_1_708" x="-210" y="-450" rx="20" ry="20" width="420" height="900" />
</clipPath>
<path style="stroke: none; stroke-width: 1; stroke-dasharray: none; stroke-linecap: butt; stroke-dashoffset: 0; stroke-linejoin: miter; stroke-miterlimit: 4; fill: rgb(255,255,255); fill-rule: nonzero; opacity: 1;" vector-effect="non-scaling-stroke"  transform=" translate(-143, -443.2)" d="M 58.4 443.2 C 58.4 439.224 61.6236 436 65.6 436 L 220.4 436 C 224.376 436 227.6 439.224 227.6 443.2 C 227.6 447.177 224.376 450.4 220.4 450.4 L 65.6 450.4 C 61.6236 450.4 58.4 447.177 58.4 443.2 Z" stroke-linecap="round" />
</g>
		<g transform="matrix(1 0 0 1 9.6 -50.4)" clip-path="url(#CLIPPATH_125)"  >
<clipPath id="CLIPPATH_125" >
	<rect transform="matrix(1 0 0 1 -30 50.4)" id="clip0_1_708" x="-210" y="-450" rx="20" ry="20" width="420" height="900" />
</clipPath>
<path style="stroke: none; stroke-width: 1; stroke-dasharray: none; stroke-linecap: butt; stroke-dashoffset: 0; stroke-linejoin: miter; stroke-miterlimit: 4; fill: rgb(255,255,255); fill-rule: nonzero; opacity: 1;" vector-effect="non-scaling-stroke"  transform=" translate(-260, -409.6)" d="M 192.8 409.6 C 192.8 405.624 196.024 402.4 200 402.4 L 320 402.4 C 323.976 402.4 327.2 405.624 327.2 409.6 C 327.2 413.577 323.976 416.8 320 416.8 L 200 416.8 C 196.024 416.8 192.8 413.577 192.8 409.6 Z" stroke-linecap="round" />
</g>
		<g transform="matrix(1 0 0 1 -20.4 -280.8)" clip-path="url(#CLIPPATH_126)"  >
<clipPath id="CLIPPATH_126" >
	<rect transform="matrix(1 0 0 1 0 280.8)" id="clip0_1_708" x="-210" y="-450" rx="20" ry="20" width="420" height="900" />
</clipPath>
<path style="stroke: none; stroke-width: 1; stroke-dasharray: none; stroke-linecap: butt; stroke-dashoffset: 0; stroke-linejoin: miter; stroke-miterlimit: 4; fill: rgb(255,255,255); fill-rule: nonzero; opacity: 1;" vector-effect="non-scaling-stroke"  transform=" translate(-230, -179.2)" d="M 58.4 85.6003 C 58.4 72.3455 69.1452 61.6003 82.4 61.6003 L 377.6 61.6003 C 390.855 61.6003 401.6 72.3455 401.6 85.6003 L 401.6 272.8 C 401.6 286.055 390.855 296.8 377.6 296.8 L 82.4 296.8 C 69.1452 296.8 58.4 286.055 58.4 272.8 L 58.4 85.6003 Z" stroke-linecap="round" />
</g>
		<g transform="matrix(1 0 0 1 -86.4 -297.6)" clip-path="url(#CLIPPATH_127)"  >
<clipPath id="CLIPPATH_127" >
	<rect transform="matrix(1 0 0 1 66 297.6)" id="clip0_1_708" x="-210" y="-450" rx="20" ry="20" width="420" height="900" />
</clipPath>
<path style="stroke: none; stroke-width: 1; stroke-dasharray: none; stroke-linecap: butt; stroke-dashoffset: 0; stroke-linejoin: miter; stroke-miterlimit: 4; fill: rgb(186,230,253); fill-rule: nonzero; opacity: 1;" vector-effect="non-scaling-stroke"  transform=" translate(-164, -162.4)" d="M 58.4 61.6003 L 269.6 61.6003 L 58.4 263.2 L 58.4 61.6003 Z" stroke-linecap="round" />
</g>
		<g transform="matrix(1 0 0 1 132 -187.2)" clip-path="url(#CLIPPATH_128)"  >
<clipPath id="CLIPPATH_128" >
	<rect transform="matrix(1 0 0 1 -152.4 187.2)" id="clip0_1_708" x="-210" y="-450" rx="20" ry="20" width="420" height="900" />
</clipPath>
<path style="stroke: none; stroke-width: 1; stroke-dasharray: none; stroke-linecap: butt; stroke-dashoffset: 0; stroke-linejoin: miter; stroke-miterlimit: 4; fill: rgb(251,191,36); fill-rule: nonzero; opacity: 1;" vector-effect="non-scaling-stroke"  transform=" translate(-382.4, -272.8)" d="M 456.8 272.8 C 456.8 313.89 423.49 347.2 382.4 347.2 C 341.31 347.2 308 313.89 308 272.8 C 308 231.71 341.31 198.4 382.4 198.4 C 423.49 198.4 456.8 231.71 456.8 272.8 Z" stroke-linecap="round" />
</g>
		<g transform="matrix(1 0 0 1 56.4 -250.8)" clip-path="url(#CLIPPATH_129)"  >
<clipPath id="CLIPPATH_129" >
	<rect transform="matrix(1 0 0 1 -76.8 250.8)" id="clip0_1_708" x="-210" y="-450" rx="20" ry="20" width="420" height="900" />
</clipPath>
<path style="stroke: none; stroke-width: 1; stroke-dasharray: none; stroke-linecap: butt; stroke-dashoffset: 0; stroke-linejoin: miter; stroke-miterlimit: 4; fill: rgb(255,255,255); fill-rule: nonzero; opacity: 1;" vector-effect="non-scaling-stroke"  transform=" translate(-306.8, -209.2)" d="M 382.4 209.2 C 382.4 250.953 348.553 284.8 306.8 284.8 C 265.047 284.8 231.2 250.953 231.2 209.2 C 231.2 167.448 265.047 133.6 306.8 133.6 C 348.553 133.6 382.4 167.448 382.4 209.2 Z" stroke-linecap="round" />
</g>
		<g transform="matrix(1 0 0 1 56.4 -250.8)" clip-path="url(#CLIPPATH_130)"  >
<clipPath id="CLIPPATH_130" >
	<rect transform="matrix(1 0 0 1 -76.8 250.8)" id="clip0_1_708" x="-210" y="-450" rx="20" ry="20" width="420" height="900" />
</clipPath>
<path style="stroke: none; stroke-width: 1; stroke-dasharray: none; stroke-linecap: butt; stroke-dashoffset: 0; stroke-linejoin: miter; stroke-miterlimit: 4; fill: rgb(224,242,254); fill-rule: evenodd; opacity: 1;" vector-effect="non-scaling-stroke"  transform=" translate(-306.8, -209.2)" d="M 306.8 272.8 C 341.925 272.8 370.4 244.325 370.4 209.2 C 370.4 174.075 341.925 145.6 306.8 145.6 C 271.675 145.6 243.2 174.075 243.2 209.2 C 243.2 244.325 271.675 272.8 306.8 272.8 Z M 306.8 284.8 C 348.553 284.8 382.4 250.953 382.4 209.2 C 382.4 167.448 348.553 133.6 306.8 133.6 C 265.047 133.6 231.2 167.448 231.2 209.2 C 231.2 250.953 265.047 284.8 306.8 284.8 Z" stroke-linecap="round" />
</g>
		<g transform="matrix(1 0 0 1 -20.4 334.8)" clip-path="url(#CLIPPATH_131)"  >
<clipPath id="CLIPPATH_131" >
	<rect transform="matrix(1 0 0 1 0 -334.8)" id="clip0_1_708" x="-210" y="-450" rx="20" ry="20" width="420" height="900" />
</clipPath>
<path style="stroke: none; stroke-width: 1; stroke-dasharray: none; stroke-linecap: butt; stroke-dashoffset: 0; stroke-linejoin: miter; stroke-miterlimit: 4; fill: rgb(255,255,255); fill-rule: nonzero; opacity: 1;" vector-effect="non-scaling-stroke"  transform=" translate(-230, -794.8)" d="M 20 797.8 L 440 797.8 L 440 791.8 L 20 791.8 L 20 797.8 Z" stroke-linecap="round" />
</g>
		<g transform="matrix(1 0 0 1 -166.8 392.4)" clip-path="url(#CLIPPATH_132)"  >
<clipPath id="CLIPPATH_132" >
	<rect transform="matrix(1 0 0 1 146.4 -392.4)" id="clip0_1_708" x="-210" y="-450" rx="20" ry="20" width="420" height="900" />
</clipPath>
<path style="stroke: none; stroke-width: 1; stroke-dasharray: none; stroke-linecap: butt; stroke-dashoffset: 0; stroke-linejoin: miter; stroke-miterlimit: 4; fill: rgb(255,255,255); fill-rule: evenodd; opacity: 1;" vector-effect="non-scaling-stroke"  transform=" translate(-83.6, -852.4)" d="M 78.2718 829.002 C 79.124 829.036 79.8353 829.663 79.9755 830.504 L 85.8628 865.828 L 90.8693 848.306 C 91.0861 847.547 91.7719 847.018 92.5609 847.001 C 93.3499 846.984 94.0581 847.482 94.3076 848.231 L 97.4974 857.8 L 103.4 857.8 C 104.394 857.8 105.2 858.606 105.2 859.6 C 105.2 860.594 104.394 861.4 103.4 861.4 L 96.2 861.4 C 95.4252 861.4 94.7374 860.904 94.4924 860.169 L 92.7323 854.889 L 87.1307 874.495 C 86.8995 875.304 86.1385 875.845 85.2982 875.797 C 84.458 875.75 83.7628 875.126 83.6245 874.296 L 77.8473 839.633 L 72.7463 860.037 C 72.5459 860.838 71.826 861.4 71 861.4 L 63.8 861.4 C 62.8059 861.4 62 860.594 62 859.6 C 62 858.606 62.8059 857.8 63.8 857.8 L 69.5946 857.8 L 76.4537 830.364 C 76.6606 829.536 77.4197 828.968 78.2718 829.002 Z" stroke-linecap="round" />
</g>
		<g transform="matrix(1 0 0 1 -143.4 399.6)" clip-path="url(#CLIPPATH_133)"  >
<clipPath id="CLIPPATH_133" >
	<rect transform="matrix(1 0 0 1 123 -399.6)" id="clip0_1_708" x="-210" y="-450" rx="20" ry="20" width="420" height="900" />
</clipPath>
<path style="stroke: none; stroke-width: 1; stroke-dasharray: none; stroke-linecap: butt; stroke-dashoffset: 0; stroke-linejoin: miter; stroke-miterlimit: 4; fill: rgb(255,255,255); fill-rule: evenodd; opacity: 1;" vector-effect="non-scaling-stroke"  transform=" translate(-107, -859.6)" d="M 107 857.8 C 106.006 857.8 105.2 858.606 105.2 859.6 C 105.2 860.595 106.006 861.4 107 861.4 C 107.994 861.4 108.8 860.595 108.8 859.6 C 108.8 858.606 107.994 857.8 107 857.8 Z M 101.6 859.6 C 101.6 856.618 104.018 854.2 107 854.2 C 109.982 854.2 112.4 856.618 112.4 859.6 C 112.4 862.583 109.982 865 107 865 C 104.018 865 101.6 862.583 101.6 859.6 Z" stroke-linecap="round" />
</g>
		<g transform="matrix(1 0 0 1 -24.33 388.47)" clip-path="url(#CLIPPATH_134)"  >
<clipPath id="CLIPPATH_134" >
	<rect transform="matrix(1 0 0 1 3.93 -388.47)" id="clip0_1_708" x="-210" y="-450" rx="20" ry="20" width="420" height="900" />
</clipPath>
<path style="stroke: none; stroke-width: 1; stroke-dasharray: none; stroke-linecap: butt; stroke-dashoffset: 0; stroke-linejoin: miter; stroke-miterlimit: 4; fill: rgb(255,255,255); fill-rule: evenodd; opacity: 1;" vector-effect="non-scaling-stroke"  transform=" translate(-226.07, -848.47)" d="M 215.254 832.282 C 218.456 830.142 222.221 829 226.073 829 L 226.073 830.8 L 226.073 829 C 231.237 829.001 236.19 831.052 239.841 834.704 C 243.493 838.356 245.545 843.308 245.545 848.473 L 245.545 848.473 C 245.545 852.324 244.403 856.089 242.263 859.291 C 240.124 862.494 237.083 864.989 233.524 866.463 C 229.966 867.937 226.051 868.323 222.274 867.571 C 218.496 866.82 215.027 864.965 212.303 862.242 C 209.58 859.519 207.726 856.049 206.974 852.272 C 206.223 848.494 206.608 844.579 208.082 841.021 C 209.556 837.463 212.052 834.422 215.254 832.282 Z M 226.072 832.6 C 222.933 832.6 219.864 833.531 217.254 835.275 C 214.644 837.019 212.61 839.498 211.408 842.399 C 210.207 845.299 209.893 848.49 210.505 851.569 C 211.117 854.648 212.629 857.477 214.849 859.697 C 217.069 861.916 219.897 863.428 222.976 864.041 C 226.055 864.653 229.246 864.339 232.147 863.137 C 235.047 861.936 237.526 859.901 239.27 857.291 C 241.014 854.681 241.945 851.612 241.945 848.473" stroke-linecap="round" />
</g>
		<g transform="matrix(1 0 0 1 -4.97 407.83)" clip-path="url(#CLIPPATH_135)"  >
<clipPath id="CLIPPATH_135" >
	<rect transform="matrix(1 0 0 1 -15.43 -407.83)" id="clip0_1_708" x="-210" y="-450" rx="20" ry="20" width="420" height="900" />
</clipPath>
<path style="stroke: none; stroke-width: 1; stroke-dasharray: none; stroke-linecap: butt; stroke-dashoffset: 0; stroke-linejoin: miter; stroke-miterlimit: 4; fill: rgb(255,255,255); fill-rule: evenodd; opacity: 1;" vector-effect="non-scaling-stroke"  transform=" translate(-245.43, -867.83)" d="M 237.985 860.385 C 238.688 859.682 239.827 859.682 240.53 860.385 L 252.873 872.728 C 253.576 873.43 253.576 874.57 252.873 875.273 C 252.17 875.976 251.03 875.976 250.327 875.273 L 237.985 862.931 C 237.282 862.228 237.282 861.088 237.985 860.385 Z" stroke-linecap="round" />
</g>
		<g transform="matrix(1 0 0 1 122.4 381.6)" clip-path="url(#CLIPPATH_136)"  >
<clipPath id="CLIPPATH_136" >
	<rect transform="matrix(1 0 0 1 -142.8 -381.6)" id="clip0_1_708" x="-210" y="-450" rx="20" ry="20" width="420" height="900" />
</clipPath>
<path style="stroke: none; stroke-width: 1; stroke-dasharray: none; stroke-linecap: butt; stroke-dashoffset: 0; stroke-linejoin: miter; stroke-miterlimit: 4; fill: rgb(255,255,255); fill-rule: evenodd; opacity: 1;" vector-effect="non-scaling-stroke"  transform=" translate(-372.8, -841.6)" d="M 351.2 841.6 C 351.2 840.606 352.006 839.8 353 839.8 L 392.6 839.8 C 393.594 839.8 394.4 840.606 394.4 841.6 C 394.4 842.594 393.594 843.4 392.6 843.4 L 353 843.4 C 352.006 843.4 351.2 842.594 351.2 841.6 Z" stroke-linecap="round" />
</g>
		<g transform="matrix(1 0 0 1 122.4 392.4)" clip-path="url(#CLIPPATH_137)"  >
<clipPath id="CLIPPATH_137" >
	<rect transform="matrix(1 0 0 1 -142.8 -392.4)" id="clip0_1_708" x="-210" y="-450" rx="20" ry="20" width="420" height="900" />
</clipPath>
<path style="stroke: none; stroke-width: 1; stroke-dasharray: none; stroke-linecap: butt; stroke-dashoffset: 0; stroke-linejoin: miter; stroke-miterlimit: 4; fill: rgb(255,255,255); fill-rule: evenodd; opacity: 1;" vector-effect="non-scaling-stroke"  transform=" translate(-372.8, -852.4)" d="M 351.2 852.4 C 351.2 851.406 352.006 850.6 353 850.6 L 392.6 850.6 C 393.594 850.6 394.4 851.406 394.4 852.4 C 394.4 853.394 393.594 854.2 392.6 854.2 L 353 854.2 C 352.006 854.2 351.2 853.394 351.2 852.4 Z" stroke-linecap="round" />
</g>
		<g transform="matrix(1 0 0 1 122.4 403.2)" clip-path="url(#CLIPPATH_138)"  >
<clipPath id="CLIPPATH_138" >
	<rect transform="matrix(1 0 0 1 -142.8 -403.2)" id="clip0_1_708" x="-210" y="-450" rx="20" ry="20" width="420" height="900" />
</clipPath>
<path style="stroke: none; stroke-width: 1; stroke-dasharray: none; stroke-linecap: butt; stroke-dashoffset: 0; stroke-linejoin: miter; stroke-miterlimit: 4; fill: rgb(255,255,255); fill-rule: evenodd; opacity: 1;" vector-effect="non-scaling-stroke"  transform=" translate(-372.8, -863.2)" d="M 351.2 863.2 C 351.2 862.206 352.006 861.4 353 861.4 L 392.6 861.4 C 393.594 861.4 394.4 862.206 394.4 863.2 C 394.4 864.195 393.594 865 392.6 865 L 353 865 C 352.006 865 351.2 864.195 351.2 863.2 Z" stroke-linecap="round" />
</g>
		<g transform="matrix(1 0 0 1 -20.4 0)"  >
<rect style="stroke: rgb(255,255,255); stroke-width: 5; stroke-dasharray: none; stroke-linecap: butt; stroke-dashoffset: 0; stroke-linejoin: miter; stroke-miterlimit: 4; fill: none; fill-rule: nonzero; opacity: 1;" vector-effect="non-scaling-stroke"  x="-207.5" y="-447.5" rx="17.5" ry="17.5" width="415" height="895" />
</g>
</g>
</g>
<g transform="matrix(1 0 0 1 635.81 729.8)"  >
<g style="" vector-effect="non-scaling-stroke"   >
		<g transform="matrix(1 0 0 1 0 0)"  >
<path style="stroke: none; stroke-width: 1; stroke-dasharray: none; stroke-linecap: butt; stroke-dashoffset: 0; stroke-linejoin: miter; stroke-miterlimit: 4; fill: rgb(186,230,253); fill-rule: nonzero; opacity: 1;" vector-effect="non-scaling-stroke"  transform=" translate(-57.6, -57.6)" d="M 115.2 57.6002 C 115.2 89.4118 89.4116 115.2 57.6 115.2 C 25.7884 115.2 0 89.4118 0 57.6002 C 0 25.7886 25.7884 0.000244141 57.6 0.000244141 C 89.4116 0.000244141 115.2 25.7886 115.2 57.6002 Z" stroke-linecap="round" />
</g>
		<g transform="matrix(1 0 0 1 0 0)"  >
<path style="stroke: none; stroke-width: 1; stroke-dasharray: none; stroke-linecap: butt; stroke-dashoffset: 0; stroke-linejoin: miter; stroke-miterlimit: 4; fill: rgb(255,255,255); fill-rule: evenodd; opacity: 1;" vector-effect="non-scaling-stroke"  transform=" translate(-57.6, -57.6)" d="M 57.6 111.6 C 87.4234 111.6 111.6 87.4236 111.6 57.6002 C 111.6 27.7768 87.4234 3.60024 57.6 3.60024 C 27.7766 3.60024 3.6 27.7768 3.6 57.6002 C 3.6 87.4236 27.7766 111.6 57.6 111.6 Z M 57.6 115.2 C 89.4116 115.2 115.2 89.4118 115.2 57.6002 C 115.2 25.7886 89.4116 0.000244141 57.6 0.000244141 C 25.7884 0.000244141 0 25.7886 0 57.6002 C 0 89.4118 25.7884 115.2 57.6 115.2 Z" stroke-linecap="round" />
</g>
</g>
</g>
</svg>